<svg xmlns="http://www.w3.org/2000/svg" width="210mm" height="297mm" viewBox="0 0 210 297"><g transform="matrix(.26458 0 0 .26458 64.453 238.57)"><rect width="359" height="539" x="30" y="-656.64" rx="29.944" style="fill:#fff;stroke:#000"/><a transform="rotate(180 209.142 -387.374)"><path d="m53.618-626.213-.54 6.293-1.503 18.238-1.958 24.194-2.373.067.029 1.101 8.018.005-.024-1.195-2.275.01 1.734-24.135 6.118.055 3.519 24.025-1.956.023-.001 1.187 7.376.025.023-1.299-2.131-.02-6.998-42.532-.392-2.4-.22-1.275-.242-1.192-.22-1.175z"/></a><path d="m362.435-150.94 1.298-18.635-5.78-.066 2.602 18.717z" style="fill:#fff;fill-opacity:1;stroke-width:.865641"/><path d="M209.5-427.13c-3.999-.081-6.667 1.333-9.333 4-2.667 2.667-4 5.333-4 9.333s1.518 6.372 4 9.333c2.375 2.833 4 4 5.333 6.666 1.333 2.667 2.667 8 2.667 10.666v4H205.5c-2.667 0-8-2.667-9.333-4l-4-4c-2.667-2.667-5.333-4-9.333-4s-6.667 1.333-9.333 4c-2.667 2.667-4 5.333-4 9.333s1.333 6.666 4 9.333 5.333 4 9.333 4 6.667-1.333 9.333-4l4-4c1.333-1.333 6.667-4 9.333-4h2.667c-.066 3.776-.346 10.37-1.333 13.333-1.333 4-4 8-6.667 10.666-2.667 2.667-10.667 8-10.667 8v1.333s13.333-2.667 16-2.667h8c2.667 0 16 2.667 16 2.667v-1.333s-8-5.333-10.667-8-5.333-6.666-6.667-10.666c-.988-2.963-1.267-9.557-1.333-13.333h2.667c2.667 0 8 2.667 9.333 4l4 4c2.667 2.667 5.333 4 9.333 4s6.667-1.333 9.333-4c2.667-2.667 4-5.333 4-9.333s-1.333-6.666-4-9.333-5.333-4-9.333-4-6.667 1.333-9.333 4l-4 4c-1.333 1.333-6.667 4-9.333 4h-2.667v-4c0-2.667 1.333-8 2.667-10.666 1.333-2.667 2.667-4 5.333-6.666 2.653-2.653 4-5.333 4-9.333s-1.333-6.666-4-9.333-5.333-4-9.333-4M59.5-567.14c-1.5-.031-2.5.5-3.5 1.5s-1.5 2-1.5 3.5.569 2.39 1.5 3.5c.891 1.063 1.5 1.5 2 2.5s1 3 1 4v1.5h-1c-1 0-3-1-3.5-1.5l-1.5-1.5c-1-1-2-1.5-3.5-1.5s-2.5.5-3.5 1.5-1.5 2-1.5 3.5.5 2.5 1.5 3.5 2 1.5 3.5 1.5 2.5-.5 3.5-1.5l1.5-1.5c.5-.5 2.5-1.5 3.5-1.5h1c-.025 1.416-.13 3.889-.5 5-.5 1.5-1.5 3-2.5 4s-4 3-4 3v.5s5-1 6-1h3c1 0 6 1 6 1v-.5s-3-2-4-3-2-2.5-2.5-4c-.37-1.111-.475-3.584-.5-5h1c1 0 3 1 3.5 1.5l1.5 1.5c1 1 2 1.5 3.5 1.5s2.5-.5 3.5-1.5 1.5-2 1.5-3.5-.5-2.5-1.5-3.5-2-1.5-3.5-1.5-2.5.5-3.5 1.5l-1.5 1.5c-.5.5-2.5 1.5-3.5 1.5h-1v-1.5c0-1 .5-3 1-4s1-1.5 2-2.5c.995-.995 1.5-2 1.5-3.5s-.5-2.5-1.5-3.5-2-1.5-3.5-1.5M359.5-207.14c1.5.031 2.5-.5 3.5-1.5s1.5-2 1.5-3.5-.569-2.39-1.5-3.5c-.891-1.063-1.5-1.5-2-2.5s-1-3-1-4v-1.5h1c1 0 3 1 3.5 1.5l1.5 1.5c1 1 2 1.5 3.5 1.5s2.5-.5 3.5-1.5 1.5-2 1.5-3.5-.5-2.5-1.5-3.5-2-1.5-3.5-1.5-2.5.5-3.5 1.5l-1.5 1.5c-.5.5-2.5 1.5-3.5 1.5h-1c.025-1.416.13-3.889.5-5 .5-1.5 1.5-3 2.5-4s4-3 4-3v-.5s-5 1-6 1h-3c-1 0-6-1-6-1v.5s3 2 4 3 2 2.5 2.5 4c.37 1.111.475 3.584.5 5h-1c-1 0-3-1-3.5-1.5l-1.5-1.5c-1-1-2-1.5-3.5-1.5s-2.5.5-3.5 1.5-1.5 2-1.5 3.5.5 2.5 1.5 3.5 2 1.5 3.5 1.5 2.5-.5 3.5-1.5l1.5-1.5c.5-.5 2.5-1.5 3.5-1.5h1v1.5c0 1-.5 3-1 4s-1 1.5-2 2.5c-.995.995-1.5 2-1.5 3.5s.5 2.5 1.5 3.5 2 1.5 3.5 1.5M53.618-626.213l-.54 6.293-1.503 18.238-1.958 24.194-2.373.067.029 1.101 8.018.005-.024-1.195-2.275.01 1.734-24.135 6.118.055 3.519 24.025-1.956.023-.001 1.187 7.376.025.023-1.299-2.131-.02-6.998-42.532-.392-2.4-.22-1.275-.242-1.192-.22-1.175z"/><path d="m55.85-623.808-1.299 18.635 5.78.066-2.602-18.717z" style="fill:#fff;fill-opacity:1;stroke-width:.865641"/></g></svg>