<svg xmlns="http://www.w3.org/2000/svg" width="210mm" height="297mm" viewBox="0 0 210 297"><rect width="94.985" height="142.61" x="55.12" y="54.336" rx="7.923" style="fill:#fff;stroke:#000;stroke-width:.264583"/><g style="fill:#f55"><path d="M103.12 121.365s.482-2.95 1.411-3.88c.93-.93 2.566-1.411 3.881-1.411s2.951.481 3.88 1.41c.93.93 1.412 2.567 1.412 3.881 0 1.315-.706 3.175-1.411 3.88-.706.707-1.411 1.06-2.117 1.765-.706.706-1.058.706-1.764 1.41l-1.764 1.765c-.706.706-1.764 2.117-2.47 3.528-.705 1.41-1.058 3.527-1.058 3.527s-.352-2.116-1.058-3.527c-.706-1.411-1.764-2.823-2.47-3.528l-1.763-1.764c-.706-.706-1.059-.706-1.764-1.411-.706-.706-1.411-1.058-2.117-1.764s-1.41-2.566-1.41-3.88c0-1.315.48-2.952 1.41-3.881.93-.93 2.566-1.411 3.88-1.411 1.315 0 2.952.481 3.881 1.41.93.93 1.411 3.881 1.411 3.881M63.433 81.016s.18-1.106.53-1.455c.348-.349.961-.529 1.454-.529s1.107.18 1.455.53c.35.348.53.961.53 1.454s-.265 1.191-.53 1.456c-.264.264-.529.396-.793.661-.265.265-.397.265-.662.53l-.661.66c-.265.265-.662.794-.926 1.324-.265.529-.397 1.322-.397 1.322s-.132-.793-.397-1.322c-.265-.53-.661-1.059-.926-1.323l-.661-.662c-.265-.264-.397-.264-.662-.529s-.53-.397-.794-.661c-.264-.265-.529-.963-.529-1.456s.18-1.106.53-1.455c.348-.349.962-.529 1.455-.529.492 0 1.106.18 1.455.53.348.348.529 1.454.529 1.454M142.808 172.298s.18 1.106.53 1.455c.348.349.961.529 1.454.529s1.107-.18 1.455-.53c.35-.348.53-.961.53-1.454s-.265-1.191-.53-1.456c-.264-.264-.529-.396-.793-.661-.265-.265-.397-.265-.662-.53l-.661-.66c-.265-.265-.662-.794-.926-1.324-.265-.529-.397-1.323-.397-1.323s-.132.794-.397 1.323c-.265.53-.661 1.059-.926 1.323l-.661.662c-.265.264-.397.264-.662.529s-.53.397-.794.661c-.264.265-.529.963-.529 1.456s.18 1.106.53 1.455c.348.349.962.529 1.455.529.492 0 1.106-.18 1.455-.53.348-.348.529-1.454.529-1.454"/><g transform="matrix(1 0 0 1 -1.365 20.413)"><a style="fill:#f55;fill-opacity:1" transform="matrix(.26458 0 0 .26458 49.224 207.977)"><path d="m53.618-626.213-.54 6.293-1.503 18.238-1.958 24.194-2.373.067.029 1.101 8.018.005-.024-1.195-2.275.01 1.734-24.135 6.118.055 3.519 24.025-1.956.023-.001 1.187 7.376.025.023-1.299-2.131-.02-6.998-42.532-.392-2.4-.22-1.275-.242-1.192-.22-1.175z" style="fill:#f55;fill-opacity:1"/></a><path d="m64 42.928-.343 4.93 1.53.018-.689-4.953z" style="fill:#fff;fill-opacity:1;stroke-width:.229034"/></g></g><g transform="rotate(180 103.771 115.984)"><a style="fill:#f55;fill-opacity:1" transform="matrix(.26458 0 0 .26458 49.224 207.977)"><path d="m53.618-626.213-.54 6.293-1.503 18.238-1.958 24.194-2.373.067.029 1.101 8.018.005-.024-1.195-2.275.01 1.734-24.135 6.118.055 3.519 24.025-1.956.023-.001 1.187 7.376.025.023-1.299-2.131-.02-6.998-42.532-.392-2.4-.22-1.275-.242-1.192-.22-1.175z" style="fill:#f55;fill-opacity:1"/></a><path d="m64 42.928-.343 4.93 1.53.018-.689-4.953z" style="fill:#fff;fill-opacity:1;stroke-width:.229034"/></g></svg>