<svg xmlns="http://www.w3.org/2000/svg" width="210mm" height="297mm" viewBox="0 0 210 297"><g transform="matrix(.26458 0 0 .26458 55.665 -66.796)"><rect width="359" height="539" x=".5" y="512.86" rx="29.944" style="fill:#fff;stroke:#000"/><g style="fill:#f55"><path d="M30 609.86s.682-4.182 2-5.5c1.318-1.318 3.637-2 5.5-2s4.182.682 5.5 2c1.318 1.318 2 3.637 2 5.5s-1 4.5-2 5.5-2 1.5-3 2.5-1.5 1-2.5 2l-2.5 2.5c-1 1-2.5 3-3.5 5s-1.5 5-1.5 5-.5-3-1.5-5-2.5-4-3.5-5l-2.5-2.5c-1-1-1.5-1-2.5-2s-2-1.5-3-2.5-2-3.637-2-5.5.682-4.182 2-5.5c1.318-1.318 3.637-2 5.5-2s4.182.682 5.5 2c1.318 1.318 2 5.5 2 5.5M330 954.86s.682 4.182 2 5.5c1.318 1.318 3.637 2 5.5 2s4.182-.682 5.5-2c1.318-1.318 2-3.637 2-5.5s-1-4.5-2-5.5-2-1.5-3-2.5-1.5-1-2.5-2l-2.5-2.5c-1-1-2.5-3-3.5-5s-1.5-5-1.5-5-.5 3-1.5 5-2.5 4-3.5 5l-2.5 2.5c-1 1-1.5 1-2.5 2s-2 1.5-3 2.5-2 3.637-2 5.5.682 4.182 2 5.5c1.318 1.318 3.637 2 5.5 2s4.182-.682 5.5-2c1.318-1.318 2-5.5 2-5.5M100 582.36s1.82-11.153 5.333-14.667c3.514-3.514 9.698-5.333 14.667-5.333 4.969 0 11.153 1.82 14.667 5.333 3.514 3.514 5.333 9.698 5.333 14.667 0 4.969-2.667 12-5.333 14.667-2.667 2.667-5.333 4-8 6.667s-4 2.667-6.667 5.333l-6.667 6.667c-2.667 2.667-6.667 8-9.333 13.333-2.667 5.333-4 13.333-4 13.333s-1.333-8-4-13.333-6.667-10.667-9.333-13.333L80 609.027c-2.667-2.667-4-2.667-6.667-5.333-2.667-2.667-5.333-4-8-6.667S60 587.329 60 582.36c0-4.969 1.82-11.153 5.333-14.667 3.514-3.514 9.698-5.333 14.667-5.333 4.969 0 11.153 1.82 14.667 5.333C98.181 571.207 100 582.36 100 582.36M100 982.36s1.82 11.153 5.333 14.667c3.514 3.514 9.698 5.333 14.667 5.333 4.969 0 11.153-1.82 14.667-5.333 3.514-3.514 5.333-9.698 5.333-14.667 0-4.969-2.667-12-5.333-14.667-2.667-2.667-5.333-4-8-6.667s-4-2.667-6.667-5.333l-6.667-6.667c-2.667-2.667-6.667-8-9.333-13.333-2.667-5.333-4-13.333-4-13.333s-1.333 8-4 13.333-6.667 10.667-9.333 13.333L80 955.693c-2.667 2.667-4 2.667-6.667 5.333-2.667 2.667-5.333 4-8 6.667S60 977.391 60 982.36c0 4.969 1.82 11.153 5.333 14.667 3.514 3.514 9.698 5.333 14.667 5.333 4.969 0 11.153-1.82 14.667-5.333C98.181 993.513 100 982.36 100 982.36M30 542.36l-10 35v5h12v10h5v-10h3v-5h-3v-15h-5v15h-6.8l10-35zM330 1022.36l10-35v-5h-12v-10h-5v10h-3v5h3v15h5v-15h6.8l-10 35zM260 982.36s1.82 11.153 5.333 14.667c3.514 3.514 9.698 5.333 14.667 5.333 4.969 0 11.153-1.82 14.667-5.333 3.514-3.514 5.333-9.698 5.333-14.667 0-4.969-2.667-12-5.333-14.667-2.667-2.667-5.333-4-8-6.667s-4-2.667-6.667-5.333l-6.667-6.667c-2.667-2.667-6.667-8-9.333-13.333-2.667-5.333-4-13.333-4-13.333s-1.333 8-4 13.333-6.667 10.667-9.333 13.333L240 955.693c-2.667 2.667-4 2.667-6.667 5.333-2.667 2.667-5.333 4-8 6.667S220 977.391 220 982.36c0 4.969 1.82 11.153 5.333 14.667 3.514 3.514 9.698 5.333 14.667 5.333 4.969 0 11.153-1.82 14.667-5.333 3.514-3.514 5.333-14.667 5.333-14.667M260 582.36s1.82-11.153 5.333-14.667c3.514-3.514 9.698-5.333 14.667-5.333 4.969 0 11.153 1.82 14.667 5.333 3.514 3.514 5.333 9.698 5.333 14.667 0 4.969-2.667 12-5.333 14.667-2.667 2.667-5.333 4-8 6.667s-4 2.667-6.667 5.333l-6.667 6.667c-2.667 2.667-6.667 8-9.333 13.333-2.667 5.333-4 13.333-4 13.333s-1.333-8-4-13.333-6.667-10.667-9.333-13.333L240 609.027c-2.667-2.667-4-2.667-6.667-5.333-2.667-2.667-5.333-4-8-6.667S220 587.329 220 582.36c0-4.969 1.82-11.153 5.333-14.667 3.514-3.514 9.698-5.333 14.667-5.333 4.969 0 11.153 1.82 14.667 5.333 3.514 3.514 5.333 14.667 5.333 14.667"/></g></g></svg>