<svg xmlns="http://www.w3.org/2000/svg" width="210mm" height="297mm" viewBox="0 0 210 297"><g transform="matrix(.26458 0 0 .26458 44.15 -54.266)"><rect width="359" height="539" x=".5" y="512.86" rx="29.944" style="fill:#fff;stroke:#000"/><path d="m30 542.36-10 35v5h12v10h5v-10h3v-5h-3v-15h-5v15h-6.8l10-35zM330 1022.36l10-35v-5h-12v-10h-5v10h-3v5h3v15h5v-15h6.8l-10 35zM100 562.37c-3.999-.082-6.667 1.333-9.333 4-2.667 2.667-4 5.333-4 9.333s1.518 6.372 4 9.333c2.375 2.833 4 4 5.333 6.666 1.333 2.667 2.667 8 2.667 10.666v4H96c-2.667 0-8-2.667-9.333-4l-4-4c-2.667-2.667-5.333-4-9.333-4s-6.667 1.333-9.333 4c-2.667 2.667-4 5.333-4 9.333s1.333 6.666 4 9.333 5.333 4 9.333 4 6.667-1.333 9.333-4l4-4c1.333-1.333 6.667-4 9.333-4h2.667c-.066 3.776-.346 10.37-1.333 13.333-1.333 4-4 8-6.667 10.666-2.667 2.667-10.667 8-10.667 8v1.333s13.333-2.667 16-2.667h8c2.667 0 16 2.667 16 2.667v-1.333s-8-5.333-10.667-8-5.333-6.666-6.667-10.666c-.988-2.963-1.267-9.557-1.333-13.333H104c2.667 0 8 2.667 9.333 4l4 4c2.667 2.667 5.333 4 9.333 4s6.667-1.333 9.333-4c2.667-2.667 4-5.333 4-9.333s-1.333-6.666-4-9.333-5.333-4-9.333-4-6.667 1.333-9.333 4l-4 4c-1.333 1.333-6.667 4-9.333 4h-2.667v-4c0-2.667 1.333-8 2.667-10.666 1.333-2.667 2.667-4 5.333-6.666 2.653-2.653 4-5.333 4-9.333s-1.333-6.666-4-9.333-5.333-4-9.333-4M260 562.37c-3.999-.082-6.667 1.333-9.333 4-2.667 2.667-4 5.333-4 9.333s1.518 6.372 4 9.333c2.375 2.833 4 4 5.333 6.666 1.333 2.667 2.667 8 2.667 10.666v4H256c-2.667 0-8-2.667-9.333-4l-4-4c-2.667-2.667-5.333-4-9.333-4s-6.667 1.333-9.333 4c-2.667 2.667-4 5.333-4 9.333s1.333 6.666 4 9.333 5.333 4 9.333 4 6.667-1.333 9.333-4l4-4c1.333-1.333 6.667-4 9.333-4h2.667c-.066 3.776-.346 10.37-1.333 13.333-1.333 4-4 8-6.667 10.666-2.667 2.667-10.667 8-10.667 8v1.333s13.333-2.667 16-2.667h8c2.667 0 16 2.667 16 2.667v-1.333s-8-5.333-10.667-8-5.333-6.666-6.667-10.666c-.988-2.963-1.267-9.557-1.333-13.333H264c2.667 0 8 2.667 9.333 4l4 4c2.667 2.667 5.333 4 9.333 4s6.667-1.333 9.333-4c2.667-2.667 4-5.333 4-9.333s-1.333-6.666-4-9.333-5.333-4-9.333-4-6.667 1.333-9.333 4l-4 4c-1.333 1.333-6.667 4-9.333 4h-2.667v-4c0-2.667 1.333-8 2.667-10.666 1.333-2.667 2.667-4 5.333-6.666 2.653-2.653 4-5.333 4-9.333s-1.333-6.666-4-9.333-5.333-4-9.333-4M260 1002.36c3.999.081 6.667-1.333 9.333-4 2.667-2.667 4-5.333 4-9.333s-1.518-6.372-4-9.333c-2.375-2.833-4-4-5.333-6.666-1.333-2.667-2.667-8-2.667-10.666v-4H264c2.667 0 8 2.667 9.333 4l4 4c2.667 2.667 5.333 4 9.333 4s6.667-1.333 9.333-4c2.667-2.667 4-5.333 4-9.333s-1.333-6.666-4-9.333-5.333-4-9.333-4-6.667 1.333-9.333 4l-4 4c-1.333 1.333-6.667 4-9.333 4h-2.667c.066-3.776.346-10.37 1.333-13.333 1.333-4 4-8 6.667-10.666 2.667-2.667 10.667-8 10.667-8v-1.333s-13.333 2.667-16 2.667h-8c-2.667 0-16-2.667-16-2.667v1.333s8 5.333 10.667 8 5.333 6.666 6.667 10.666c.988 2.963 1.267 9.557 1.333 13.333H256c-2.667 0-8-2.667-9.333-4l-4-4c-2.667-2.667-5.333-4-9.333-4s-6.667 1.333-9.333 4c-2.667 2.667-4 5.333-4 9.333s1.333 6.666 4 9.333 5.333 4 9.333 4 6.667-1.333 9.333-4l4-4c1.333-1.333 6.667-4 9.333-4h2.667v4c0 2.667-1.333 8-2.667 10.666-1.333 2.667-2.667 4-5.333 6.666-2.653 2.653-4 5.333-4 9.333s1.333 6.666 4 9.333 5.333 4 9.333 4M100 1002.36c3.999.081 6.667-1.333 9.333-4 2.667-2.667 4-5.333 4-9.333s-1.518-6.372-4-9.333c-2.375-2.833-4-4-5.333-6.666-1.333-2.667-2.667-8-2.667-10.666v-4H104c2.667 0 8 2.667 9.333 4l4 4c2.667 2.667 5.333 4 9.333 4s6.667-1.333 9.333-4c2.667-2.667 4-5.333 4-9.333s-1.333-6.666-4-9.333-5.333-4-9.333-4-6.667 1.333-9.333 4l-4 4c-1.333 1.333-6.667 4-9.333 4h-2.667c.066-3.776.346-10.37 1.333-13.333 1.333-4 4-8 6.667-10.666 2.667-2.667 10.667-8 10.667-8v-1.333s-13.333 2.667-16 2.667h-8c-2.667 0-16-2.667-16-2.667v1.333s8 5.333 10.667 8 5.333 6.666 6.667 10.666c.988 2.963 1.267 9.557 1.333 13.333H96c-2.667 0-8-2.667-9.333-4l-4-4c-2.667-2.667-5.333-4-9.333-4s-6.667 1.333-9.333 4c-2.667 2.667-4 5.333-4 9.333s1.333 6.666 4 9.333 5.333 4 9.333 4 6.667-1.333 9.333-4l4-4c1.333-1.333 6.667-4 9.333-4h2.667v4c0 2.667-1.333 8-2.667 10.666-1.333 2.667-2.667 4-5.333 6.666-2.653 2.653-4 5.333-4 9.333s1.333 6.666 4 9.333 5.333 4 9.333 4M30 602.36c-1.5-.031-2.5.5-3.5 1.5s-1.5 2-1.5 3.5.569 2.39 1.5 3.5c.891 1.063 1.5 1.5 2 2.5s1 3 1 4v1.5h-1c-1 0-3-1-3.5-1.5l-1.5-1.5c-1-1-2-1.5-3.5-1.5s-2.5.5-3.5 1.5-1.5 2-1.5 3.5.5 2.5 1.5 3.5 2 1.5 3.5 1.5 2.5-.5 3.5-1.5l1.5-1.5c.5-.5 2.5-1.5 3.5-1.5h1c-.025 1.416-.13 3.889-.5 5-.5 1.5-1.5 3-2.5 4s-4 3-4 3v.5s5-1 6-1h3c1 0 6 1 6 1v-.5s-3-2-4-3-2-2.5-2.5-4c-.37-1.111-.475-3.584-.5-5h1c1 0 3 1 3.5 1.5l1.5 1.5c1 1 2 1.5 3.5 1.5s2.5-.5 3.5-1.5 1.5-2 1.5-3.5-.5-2.5-1.5-3.5-2-1.5-3.5-1.5-2.5.5-3.5 1.5l-1.5 1.5c-.5.5-2.5 1.5-3.5 1.5h-1v-1.5c0-1 .5-3 1-4s1-1.5 2-2.5c.995-.995 1.5-2 1.5-3.5s-.5-2.5-1.5-3.5-2-1.5-3.5-1.5M330 962.36c1.5.028 2.5-.445 3.5-1.333 1-.889 1.5-1.778 1.5-3.111 0-1.333-.569-2.124-1.5-3.111-.891-.944-1.5-1.333-2-2.222s-1-2.667-1-3.556v-1.333h1c1 0 3 .889 3.5 1.333l1.5 1.333c1 .889 2 1.333 3.5 1.333s2.5-.445 3.5-1.333c1-.889 1.5-1.778 1.5-3.111 0-1.333-.5-2.222-1.5-3.111-1-.889-2-1.333-3.5-1.333s-2.5.444-3.5 1.333l-1.5 1.333c-.5.444-2.5 1.333-3.5 1.333h-1c.025-1.259.13-3.457.5-4.445.5-1.333 1.5-2.667 2.5-3.556 1-.889 4-2.667 4-2.667v-.444s-5 .889-6 .889h-3c-1 0-6-.889-6-.889v.444s3 1.778 4 2.667c1 .889 2 2.222 2.5 3.556.37.988.475 3.186.5 4.445h-1c-1 0-3-.889-3.5-1.333l-1.5-1.333c-1-.889-2-1.333-3.5-1.333s-2.5.444-3.5 1.333-1.5 1.778-1.5 3.111c0 1.333.5 2.222 1.5 3.111 1 .889 2 1.333 3.5 1.333s2.5-.445 3.5-1.333l1.5-1.333c.5-.444 2.5-1.333 3.5-1.333h1v1.333c0 .889-.5 2.667-1 3.556-.5.889-1 1.333-2 2.222-.995.885-1.5 1.778-1.5 3.111 0 1.333.5 2.222 1.5 3.111 1 .889 2 1.333 3.5 1.333"/></g></svg>