<svg xmlns="http://www.w3.org/2000/svg" width="210mm" height="297mm" viewBox="0 0 210 297"><rect width="94.985" height="142.61" x="55.458" y="75.671" rx="7.923" style="fill:#fff;stroke:#000;stroke-width:.264583"/><g style="fill:#f55"><path d="M63.263 101.335s.18-1.106.53-1.455c.348-.348.962-.529 1.455-.529.493 0 1.106.18 1.455.53.349.348.53.962.53 1.454 0 .493-.265 1.191-.53 1.456-.265.264-.53.397-.794.661-.264.265-.397.265-.661.53l-.662.66c-.264.265-.661.794-.926 1.324-.264.529-.397 1.323-.397 1.323s-.132-.794-.396-1.323c-.265-.53-.662-1.059-.926-1.323l-.662-.662c-.264-.264-.397-.264-.661-.529-.265-.264-.53-.397-.794-.661-.265-.265-.53-.963-.53-1.456 0-.492.181-1.106.53-1.455.349-.348.962-.529 1.455-.529.493 0 1.107.18 1.455.53.349.348.53 1.454.53 1.454M142.638 192.617s.18 1.106.53 1.455c.348.349.962.53 1.455.53.493 0 1.106-.181 1.455-.53.349-.349.53-.962.53-1.455 0-.493-.265-1.19-.53-1.456-.265-.264-.53-.396-.794-.661s-.397-.265-.661-.53l-.662-.66c-.264-.265-.661-.794-.926-1.324-.264-.529-.397-1.322-.397-1.322s-.132.793-.396 1.322c-.265.53-.662 1.059-.926 1.323l-.662.662c-.264.264-.397.264-.661.529-.265.265-.53.397-.794.661-.265.265-.53.963-.53 1.456s.181 1.106.53 1.455c.349.349.962.53 1.455.53.493 0 1.107-.181 1.455-.53.349-.349.53-1.455.53-1.455M63.263 96.705a2.64 2.64 0 0 0 2.646-2.646v-7.937a2.64 2.64 0 0 0-2.646-2.646 2.64 2.64 0 0 0-2.645 2.646v2.646a2.64 2.64 0 0 0 2.645 2.646c.483 0 .935-.132 1.323-.356v3.001a1.32 1.32 0 0 1-1.323 1.323 1.32 1.32 0 0 1-1.322-1.323v-.264h-1.323v.264a2.64 2.64 0 0 0 2.645 2.646m0-6.614a1.32 1.32 0 0 1-1.322-1.323v-2.646c0-.733.59-1.323 1.322-1.323.733 0 1.323.59 1.323 1.323v2.646a1.32 1.32 0 0 1-1.323 1.323M142.638 197.247a2.64 2.64 0 0 0-2.645 2.646v7.937a2.64 2.64 0 0 0 2.645 2.646 2.64 2.64 0 0 0 2.646-2.646v-2.646a2.64 2.64 0 0 0-2.646-2.645c-.482 0-.934.132-1.322.355v-3.001c0-.733.59-1.323 1.322-1.323.733 0 1.323.59 1.323 1.323v.264h1.323v-.264a2.64 2.64 0 0 0-2.646-2.646m0 6.614c.733 0 1.323.59 1.323 1.323v2.646a1.32 1.32 0 0 1-1.323 1.323 1.32 1.32 0 0 1-1.322-1.323v-2.646c0-.733.59-1.323 1.322-1.323M81.784 94.06s.482-2.952 1.411-3.881c.93-.93 2.566-1.411 3.881-1.411s2.95.481 3.88 1.41c.93.93 1.412 2.567 1.412 3.881 0 1.315-.706 3.175-1.411 3.881-.706.706-1.411 1.058-2.117 1.764s-1.058.706-1.764 1.411l-1.764 1.764c-.706.706-1.764 2.117-2.47 3.528-.705 1.41-1.058 3.527-1.058 3.527s-.352-2.116-1.058-3.527c-.706-1.411-1.764-2.823-2.47-3.528l-1.763-1.764c-.706-.706-1.059-.706-1.764-1.411-.706-.706-1.411-1.058-2.117-1.764s-1.411-2.566-1.411-3.88c0-1.315.482-2.952 1.411-3.881.93-.93 2.566-1.411 3.88-1.411 1.315 0 2.952.481 3.881 1.41.93.93 1.411 3.881 1.411 3.881M124.118 94.06s.481-2.952 1.41-3.881c.93-.93 2.567-1.411 3.881-1.411 1.315 0 2.951.481 3.881 1.41.93.93 1.411 2.567 1.411 3.881 0 1.315-.706 3.175-1.411 3.881-.706.706-1.411 1.058-2.117 1.764-.705.706-1.058.706-1.764 1.411l-1.764 1.764c-.705.706-1.764 2.117-2.469 3.528-.706 1.41-1.058 3.527-1.058 3.527s-.353-2.116-1.059-3.527c-.705-1.411-1.764-2.823-2.469-3.528l-1.764-1.764c-.706-.706-1.058-.706-1.764-1.411-.706-.706-1.411-1.058-2.117-1.764-.705-.706-1.41-2.566-1.41-3.88 0-1.315.48-2.952 1.41-3.881.93-.93 2.566-1.411 3.881-1.411s2.95.481 3.88 1.41c.93.93 1.412 3.881 1.412 3.881M81.784 125.81s.482-2.952 1.411-3.881c.93-.93 2.566-1.411 3.881-1.411s2.95.481 3.88 1.41c.93.93 1.412 2.567 1.412 3.881 0 1.315-.706 3.175-1.411 3.881-.706.706-1.411 1.058-2.117 1.764s-1.058.706-1.764 1.411l-1.764 1.764c-.706.706-1.764 2.117-2.47 3.528-.705 1.41-1.058 3.527-1.058 3.527s-.352-2.116-1.058-3.527c-.706-1.411-1.764-2.823-2.47-3.528l-1.763-1.764c-.706-.706-1.059-.706-1.764-1.411-.706-.706-1.411-1.058-2.117-1.764s-1.411-2.566-1.411-3.88c0-1.315.482-2.952 1.411-3.881.93-.93 2.566-1.411 3.88-1.411 1.315 0 2.952.481 3.881 1.41.93.93 1.411 3.881 1.411 3.881M124.118 125.81s.481-2.952 1.41-3.881c.93-.93 2.567-1.411 3.881-1.411 1.315 0 2.951.481 3.881 1.41.93.93 1.411 2.567 1.411 3.881 0 1.315-.706 3.175-1.411 3.881-.706.706-1.411 1.058-2.117 1.764-.705.706-1.058.706-1.764 1.411l-1.764 1.764c-.705.706-1.764 2.117-2.469 3.528-.706 1.41-1.058 3.527-1.058 3.527s-.353-2.116-1.059-3.527c-.705-1.411-1.764-2.823-2.469-3.528l-1.764-1.764c-.706-.706-1.058-.706-1.764-1.411-.706-.706-1.411-1.058-2.117-1.764-.705-.706-1.41-2.566-1.41-3.88 0-1.315.48-2.952 1.41-3.881.93-.93 2.566-1.411 3.881-1.411s2.95.481 3.88 1.41c.93.93 1.412 3.881 1.412 3.881M81.784 199.893s.482 2.95 1.411 3.88c.93.93 2.566 1.411 3.881 1.411s2.95-.481 3.88-1.41c.93-.93 1.412-2.567 1.412-3.881 0-1.315-.706-3.175-1.411-3.88-.706-.707-1.411-1.06-2.117-1.765-.706-.706-1.058-.706-1.764-1.41l-1.764-1.765c-.706-.706-1.764-2.117-2.47-3.528-.705-1.41-1.058-3.527-1.058-3.527s-.352 2.116-1.058 3.527c-.706 1.411-1.764 2.823-2.47 3.528l-1.763 1.764c-.706.706-1.059.706-1.764 1.411-.706.706-1.411 1.058-2.117 1.764s-1.411 2.566-1.411 3.88c0 1.315.482 2.952 1.411 3.881.93.93 2.566 1.411 3.88 1.411 1.315 0 2.952-.481 3.881-1.41.93-.93 1.411-3.881 1.411-3.881M124.118 199.893s.481 2.95 1.41 3.88c.93.93 2.567 1.411 3.881 1.411 1.315 0 2.951-.481 3.881-1.41.93-.93 1.411-2.567 1.411-3.881 0-1.315-.706-3.175-1.411-3.88-.706-.707-1.411-1.06-2.117-1.765-.705-.706-1.058-.706-1.764-1.41-.705-.707-1.058-1.06-1.764-1.765-.705-.706-1.764-2.117-2.469-3.528-.706-1.41-1.058-3.527-1.058-3.527s-.353 2.116-1.059 3.527c-.705 1.411-1.764 2.823-2.469 3.528l-1.764 1.764c-.706.706-1.058.706-1.764 1.411-.706.706-1.411 1.058-2.117 1.764-.705.706-1.41 2.566-1.41 3.88 0 1.315.48 2.952 1.41 3.881.93.93 2.566 1.411 3.881 1.411s2.95-.481 3.88-1.41c.93-.93 1.412-3.881 1.412-3.881M81.784 168.143s.482 2.95 1.411 3.88c.93.93 2.566 1.411 3.881 1.411s2.95-.481 3.88-1.41c.93-.93 1.412-2.567 1.412-3.881 0-1.315-.706-3.175-1.411-3.88-.706-.707-1.411-1.06-2.117-1.765-.706-.706-1.058-.706-1.764-1.41l-1.764-1.765c-.706-.706-1.764-2.117-2.47-3.528-.705-1.41-1.058-3.527-1.058-3.527s-.352 2.116-1.058 3.527c-.706 1.411-1.764 2.823-2.47 3.528l-1.763 1.764c-.706.706-1.059.706-1.764 1.411-.706.706-1.411 1.058-2.117 1.764s-1.411 2.566-1.411 3.88c0 1.315.482 2.952 1.411 3.881.93.93 2.566 1.411 3.88 1.411 1.315 0 2.952-.481 3.881-1.41.93-.93 1.411-3.881 1.411-3.881M124.118 168.143s.481 2.95 1.41 3.88c.93.93 2.567 1.411 3.881 1.411 1.315 0 2.951-.481 3.881-1.41.93-.93 1.411-2.567 1.411-3.881 0-1.315-.706-3.175-1.411-3.88-.706-.707-1.411-1.06-2.117-1.765-.705-.706-1.058-.706-1.764-1.41-.705-.707-1.058-1.06-1.764-1.765-.705-.706-1.764-2.117-2.469-3.528-.706-1.41-1.058-3.527-1.058-3.527s-.353 2.116-1.059 3.527c-.705 1.411-1.764 2.823-2.469 3.528l-1.764 1.764c-.706.706-1.058.706-1.764 1.411-.706.706-1.411 1.058-2.117 1.764-.705.706-1.41 2.566-1.41 3.88 0 1.315.48 2.952 1.41 3.881.93.93 2.566 1.411 3.881 1.411s2.95-.481 3.88-1.41c.93-.93 1.412-3.881 1.412-3.881M102.951 141.684s.482-2.95 1.411-3.88c.93-.93 2.566-1.411 3.88-1.411 1.315 0 2.952.481 3.881 1.41.93.93 1.411 2.567 1.411 3.881 0 1.315-.705 3.175-1.41 3.881-.706.706-1.412 1.058-2.117 1.764-.706.706-1.059.706-1.764 1.411l-1.764 1.764c-.706.706-1.764 2.117-2.47 3.528-.705 1.41-1.058 3.527-1.058 3.527s-.353-2.116-1.058-3.527c-.706-1.411-1.764-2.823-2.47-3.528l-1.764-1.764c-.705-.706-1.058-.706-1.764-1.411-.705-.706-1.41-1.058-2.116-1.764-.706-.706-1.411-2.566-1.411-3.88 0-1.315.481-2.952 1.41-3.881.93-.93 2.567-1.411 3.881-1.411 1.315 0 2.951.481 3.881 1.41.93.93 1.411 3.881 1.411 3.881"/></g></svg>