<svg xmlns="http://www.w3.org/2000/svg" width="210mm" height="297mm" viewBox="0 0 210 297"><g transform="matrix(.26458 0 0 .26458 49.569 -57.314)"><rect width="359" height="539" x=".5" y="512.86" rx="29.944" style="fill:#fff;stroke:#000"/><g style="fill:#f55"><path d="M100 562.36s8 13.333 17.333 22.667C126.666 594.36 140 602.36 140 602.36s-13.333 8-22.667 17.333C108 629.026 100 642.36 100 642.36s-8-13.333-17.333-22.667C73.334 610.36 60 602.36 60 602.36s13.333-8 22.667-17.333C92 575.694 100 562.36 100 562.36M260 562.36s8 13.333 17.333 22.667C286.666 594.36 300 602.36 300 602.36s-13.333 8-22.667 17.333C268 629.026 260 642.36 260 642.36s-8-13.333-17.333-22.667C233.334 610.36 220 602.36 220 602.36s13.333-8 22.667-17.333C252 575.694 260 562.36 260 562.36M180 652.36s8 13.333 17.333 22.667C206.666 684.36 220 692.36 220 692.36s-13.333 8-22.667 17.333C188 719.026 180 732.36 180 732.36s-8-13.333-17.333-22.667C153.334 700.36 140 692.36 140 692.36s13.333-8 22.667-17.333C172 665.694 180 652.36 180 652.36M100 742.36s8 13.333 17.333 22.667C126.666 774.36 140 782.36 140 782.36s-13.333 8-22.667 17.333C108 809.026 100 822.36 100 822.36s-8-13.333-17.333-22.667C73.334 790.36 60 782.36 60 782.36s13.333-8 22.667-17.333C92 755.694 100 742.36 100 742.36M260 742.36s8 13.333 17.333 22.667C286.666 774.36 300 782.36 300 782.36s-13.333 8-22.667 17.333C268 809.026 260 822.36 260 822.36s-8-13.333-17.333-22.667C233.334 790.36 220 782.36 220 782.36s13.333-8 22.667-17.333C252 755.694 260 742.36 260 742.36M100 922.36s8 13.333 17.333 22.667C126.666 954.36 140 962.36 140 962.36s-13.333 8-22.667 17.333C108 989.026 100 1002.36 100 1002.36s-8-13.333-17.333-22.667C73.334 970.36 60 962.36 60 962.36s13.333-8 22.667-17.333C92 935.694 100 922.36 100 922.36M260 922.36s8 13.333 17.333 22.667C286.666 954.36 300 962.36 300 962.36s-13.333 8-22.667 17.333C268 989.026 260 1002.36 260 1002.36s-8-13.333-17.333-22.667C233.334 970.36 220 962.36 220 962.36s13.333-8 22.667-17.333C252 935.694 260 922.36 260 922.36M330 932.36s3 5 6.5 8.5 8.5 6.5 8.5 6.5-5 3-8.5 6.5-6.5 8.5-6.5 8.5-3-5-6.5-8.5-8.5-6.5-8.5-6.5 5-3 8.5-6.5 6.5-8.5 6.5-8.5M30 602.36s3 5 6.5 8.5 8.5 6.5 8.5 6.5-5 3-8.5 6.5-6.5 8.5-6.5 8.5-3-5-6.5-8.5-8.5-6.5-8.5-6.5 5-3 8.5-6.5 6.5-8.5 6.5-8.5M20 542.36v10h5v-5h10l-10 45h5l10-45v-5H20M340 1022.36v-10h-5v5h-10l10-45h-5l-10 45v5h20"/></g></g></svg>