<svg xmlns="http://www.w3.org/2000/svg" width="210mm" height="297mm" viewBox="0 0 210 297"><rect width="94.985" height="142.61" x="56.813" y="34.016" rx="7.923" style="fill:#fff;stroke:#000;stroke-width:.264583"/><g transform="rotate(180 104.571 105.364)"><a style="fill:#f55;fill-opacity:1" transform="matrix(.26458 0 0 .26458 49.224 207.977)"><path d="m53.618-626.213-.54 6.293-1.503 18.238-1.958 24.194-2.373.067.029 1.101 8.018.005-.024-1.195-2.275.01 1.734-24.135 6.118.055 3.519 24.025-1.956.023-.001 1.187 7.376.025.023-1.299-2.131-.02-6.998-42.532-.392-2.4-.22-1.275-.242-1.192-.22-1.175z" style="fill:#f55;fill-opacity:1"/></a><path d="m64 42.928-.343 4.93 1.53.018-.689-4.953z" style="fill:#fff;fill-opacity:1;stroke-width:.229034"/></g><g style="fill:#f55"><path d="M104.306 94.738s2.116 3.528 4.586 5.998c2.469 2.469 5.997 4.586 5.997 4.586s-3.528 2.116-5.997 4.586c-2.47 2.469-4.586 5.997-4.586 5.997s-2.117-3.528-4.586-5.997c-2.47-2.47-5.998-4.586-5.998-4.586s3.528-2.117 5.998-4.586c2.469-2.47 4.586-5.998 4.586-5.998M143.993 145.01s.794 1.322 1.72 2.248c.926.926 2.249 1.72 2.249 1.72s-1.323.794-2.25 1.72c-.925.926-1.719 2.249-1.719 2.249s-.794-1.323-1.72-2.25c-.926-.925-2.249-1.72-2.249-1.72s1.323-.793 2.25-1.719c.925-.926 1.72-2.249 1.72-2.249M64.618 57.697s.794 1.322 1.72 2.249c.926.926 2.249 1.72 2.249 1.72s-1.323.793-2.25 1.72c-.925.925-1.719 2.248-1.719 2.248s-.794-1.323-1.72-2.249c-.926-.926-2.249-1.72-2.249-1.72s1.323-.793 2.25-1.72c.925-.926 1.72-2.248 1.72-2.248"/></g><a style="fill:#f55;fill-opacity:1" transform="matrix(.26458 0 0 .26458 49.224 207.977)"><path d="m53.618-626.213-.54 6.293-1.503 18.238-1.958 24.194-2.373.067.029 1.101 8.018.005-.024-1.195-2.275.01 1.734-24.135 6.118.055 3.519 24.025-1.956.023-.001 1.187 7.376.025.023-1.299-2.131-.02-6.998-42.532-.392-2.4-.22-1.275-.242-1.192-.22-1.175z" style="fill:#f55;fill-opacity:1"/></a><path d="m64 42.928-.343 4.93 1.53.018-.689-4.953z" style="fill:#fff;fill-opacity:1;stroke-width:.229034"/></svg>