<svg xmlns="http://www.w3.org/2000/svg" width="210mm" height="297mm" viewBox="0 0 210 297"><g transform="matrix(.26458 0 0 .26458 38.732 -96.598)"><rect width="359" height="539" x=".5" y="512.86" rx="29.944" style="fill:#fff;stroke:#000"/><path d="M180 742.36c-1.333 6.667-2.855 8.392-5.333 12-2.135 3.109-5.122 5.562-8 8-2.917 2.471-6.248 4.408-9.333 6.667-3.586 2.625-7.819 4.588-10.667 8-3.184 3.815-6.667 8.364-6.667 13.333 0 3.975 2.408 7.975 5.333 10.667 3.523 3.241 8.548 5.444 13.333 5.333 5.369-.124 10.8-2.94 14.667-6.667 2.862-2.758 5.333-10.667 5.333-10.667v2.667c0 1.333-.133 7.29-1.333 10.667-1.404 3.951-3.83 7.579-6.667 10.667-3.01 3.273-10.667 8-10.667 8v1.333s10.612-2.221 16-2.667c2.658-.22 5.342-.22 8 0 5.388.446 16 2.667 16 2.667v-1.333s-7.66-4.727-10.667-8c-2.836-3.088-5.263-6.716-6.667-10.667-1.2-3.376-1.333-10.667-1.333-10.667v-2.667s2.471 7.908 5.333 10.667c3.867 3.726 9.298 6.543 14.667 6.667 4.786.11 9.811-2.092 13.333-5.333 2.925-2.692 5.333-6.691 5.333-10.667 0-4.969-3.483-9.518-6.667-13.333-2.848-3.412-7.08-5.375-10.667-8-3.085-2.258-6.416-4.195-9.333-6.667-2.878-2.438-5.865-4.891-8-8-2.478-3.608-4-5.333-5.333-12M30 602.36c-.5 2.5-1.071 3.147-2 4.5-.801 1.166-1.921 2.086-3 3-1.094.927-2.343 1.653-3.5 2.5-1.345.984-2.932 1.72-4 3-1.194 1.431-2.5 3.137-2.5 5 0 1.491.903 2.991 2 4 1.321 1.216 3.205 2.041 5 2 2.01-.05 4.05-1.103 5.5-2.5 1.073-1.034 2-4 2-4v1c0 .5-.05 2.734-.5 4-.527 1.481-1.436 2.842-2.5 4-1.127 1.227-4 3-4 3v.5s3.979-.833 6-1c.997-.08 2-.08 3 0 2.02.167 6 1 6 1v-.5s-2.873-1.773-4-3c-1.064-1.158-1.973-2.519-2.5-4-.45-1.266-.5-4-.5-4v-1s.927 2.966 2 4c1.45 1.397 3.487 2.454 5.5 2.5 1.795.04 3.679-.784 5-2 1.097-1.01 2-2.509 2-4 0-1.863-1.306-3.569-2.5-5-1.068-1.28-2.655-2.02-4-3-1.157-.847-2.406-1.573-3.5-2.5-1.079-.914-2.199-1.834-3-3-.929-1.353-1.5-2-2-4.5M330 962.36c-.5-2.5-1.071-3.147-2-4.5-.801-1.166-1.921-2.086-3-3-1.094-.927-2.343-1.653-3.5-2.5-1.345-.984-2.932-1.72-4-3-1.194-1.431-2.5-3.137-2.5-5 0-1.491.903-2.991 2-4 1.321-1.216 3.205-2.041 5-2 2.01.05 4.05 1.103 5.5 2.5 1.073 1.034 2 4 2 4v-1c0-.5-.05-2.734-.5-4-.527-1.481-1.436-2.842-2.5-4-1.127-1.227-4-3-4-3v-.5s3.979.833 6 1c.997.08 2 .08 3 0 2.02-.167 6-1 6-1v.5s-2.873 1.773-4 3c-1.064 1.158-1.973 2.519-2.5 4-.45 1.266-.5 4-.5 4v1s.927-2.966 2-4c1.45-1.397 3.487-2.454 5.5-2.5 1.795-.04 3.679.784 5 2 1.097 1.01 2 2.509 2 4 0 1.863-1.306 3.569-2.5 5-1.068 1.28-2.655 2.02-4 3-1.157.847-2.406 1.573-3.5 2.5-1.079.914-2.199 1.834-3 3-.929 1.353-1.5 2-2 4.5M327.063 1021.652l-.54-6.293-1.503-18.238-1.957-24.194-2.374-.067.03-1.101 8.018-.005-.025 1.195-2.274-.009 1.734 24.135 6.118-.056 3.518-24.025-1.956-.022v-1.188l7.376-.025.022 1.3-2.13.019-6.998 42.532-.393 2.4-.218 1.275-.243 1.192-.22 1.176z"/><path d="m55.85-623.808-1.299 18.635 5.78.066-2.602-18.717z" style="fill:#fff;fill-opacity:1;stroke-width:.865641" transform="matrix(1 0 0 -1 273.446 395.44)"/></g><path d="m45.278 47.079-.143 1.665-.397 4.825-.518 6.402-.628.018.007.291 2.122.001-.006-.316-.602.002.459-6.385 1.618.015.931 6.356-.517.006v.314l1.951.007.006-.344-.564-.005-1.851-11.253-.104-.635-.058-.338-.064-.315-.058-.311z"/><path d="m55.85-623.808-1.299 18.635 5.78.066-2.602-18.717z" style="fill:#fff;fill-opacity:1;stroke-width:.865641" transform="matrix(.26458 0 0 .26458 31.092 212.765)"/></svg>