<svg xmlns="http://www.w3.org/2000/svg" width="210mm" height="297mm" viewBox="0 0 210 297"><rect width="94.985" height="142.61" x="35.478" y="63.141" rx="7.923" style="fill:#fff;stroke:#000;stroke-width:.264583"/><g style="fill:#f55"><path d="M43.283 88.805s.18-1.106.529-1.455c.349-.349.962-.53 1.455-.53.493 0 1.107.181 1.455.53.35.349.53.962.53 1.455 0 .493-.265 1.19-.53 1.455-.264.265-.529.397-.793.662-.265.264-.397.264-.662.53l-.661.66c-.265.265-.662.794-.926 1.323-.265.53-.397 1.323-.397 1.323s-.132-.793-.397-1.323c-.265-.529-.661-1.058-.926-1.322l-.662-.662c-.264-.265-.396-.265-.661-.53-.265-.264-.53-.396-.794-.66-.264-.265-.529-.963-.529-1.456s.18-1.106.53-1.455c.348-.349.962-.53 1.454-.53.493 0 1.107.181 1.456.53.348.349.529 1.455.529 1.455M122.658 180.086s.18 1.107.529 1.456c.349.348.962.529 1.455.529.493 0 1.107-.18 1.455-.53.35-.348.53-.962.53-1.455 0-.492-.265-1.19-.53-1.455-.264-.264-.529-.397-.793-.661-.265-.265-.397-.265-.662-.53l-.661-.66c-.265-.265-.662-.795-.926-1.324-.265-.529-.397-1.323-.397-1.323s-.132.794-.397 1.323c-.265.53-.661 1.059-.926 1.323l-.662.662c-.264.264-.396.264-.661.529-.265.264-.53.397-.794.661-.264.265-.529.963-.529 1.455 0 .493.18 1.107.53 1.456.348.348.962.529 1.454.529.493 0 1.107-.18 1.456-.53.348-.348.529-1.455.529-1.455M43.283 70.946a2.64 2.64 0 0 0-2.646 2.646v1.323c0 .793.35 1.5.901 1.984a2.63 2.63 0 0 0-.901 1.984v2.646a2.64 2.64 0 0 0 2.646 2.646 2.64 2.64 0 0 0 2.646-2.646v-2.646c0-.793-.35-1.5-.901-1.984a2.63 2.63 0 0 0 .9-1.984v-1.323a2.64 2.64 0 0 0-2.645-2.646m0 1.323c.733 0 1.323.59 1.323 1.323v1.323a1.32 1.32 0 0 1-1.323 1.323 1.32 1.32 0 0 1-1.323-1.323v-1.323c0-.733.59-1.323 1.323-1.323m0 5.291c.733 0 1.323.59 1.323 1.323v2.646a1.32 1.32 0 0 1-1.323 1.323 1.32 1.32 0 0 1-1.323-1.323v-2.646c0-.733.59-1.323 1.323-1.323M122.658 197.946a2.64 2.64 0 0 1-2.646-2.646v-1.323c0-.794.35-1.5.901-1.984a2.63 2.63 0 0 1-.901-1.985v-2.645a2.64 2.64 0 0 1 2.646-2.646 2.64 2.64 0 0 1 2.646 2.646v2.645c0 .794-.35 1.5-.901 1.985a2.63 2.63 0 0 1 .9 1.984v1.323a2.64 2.64 0 0 1-2.645 2.646m0-1.323a1.32 1.32 0 0 0 1.323-1.323v-1.323a1.32 1.32 0 0 0-1.323-1.323 1.32 1.32 0 0 0-1.323 1.323v1.323c0 .733.59 1.323 1.323 1.323m0-5.292a1.32 1.32 0 0 0 1.323-1.323v-2.645a1.32 1.32 0 0 0-1.323-1.323 1.32 1.32 0 0 0-1.323 1.323v2.645c0 .733.59 1.323 1.323 1.323M61.804 81.53s.481-2.952 1.41-3.881c.93-.93 2.567-1.411 3.881-1.411 1.315 0 2.951.481 3.881 1.41.93.93 1.411 2.566 1.411 3.881s-.706 3.175-1.411 3.88c-.706.706-1.411 1.06-2.117 1.765-.705.705-1.058.705-1.764 1.41l-1.764 1.765c-.705.705-1.764 2.116-2.469 3.527-.706 1.412-1.058 3.528-1.058 3.528s-.353-2.116-1.059-3.528c-.705-1.41-1.764-2.822-2.469-3.527l-1.764-1.764c-.706-.706-1.058-.706-1.764-1.411-.706-.706-1.411-1.059-2.117-1.764-.705-.706-1.41-2.566-1.41-3.88 0-1.316.48-2.952 1.41-3.881.93-.93 2.566-1.411 3.881-1.411s2.95.481 3.88 1.41c.93.93 1.412 3.881 1.412 3.881M104.137 81.53s.482-2.952 1.411-3.881c.93-.93 2.566-1.411 3.88-1.411 1.315 0 2.952.481 3.881 1.41.93.93 1.411 2.566 1.411 3.881s-.705 3.175-1.41 3.88c-.706.706-1.412 1.06-2.117 1.765-.706.705-1.059.705-1.764 1.41l-1.764 1.765c-.706.705-1.764 2.116-2.47 3.527-.705 1.412-1.058 3.528-1.058 3.528s-.353-2.116-1.058-3.528c-.706-1.41-1.764-2.822-2.47-3.527l-1.764-1.764c-.705-.706-1.058-.706-1.764-1.411-.705-.706-1.41-1.059-2.116-1.764-.706-.706-1.411-2.566-1.411-3.88 0-1.316.481-2.952 1.41-3.881.93-.93 2.567-1.411 3.881-1.411 1.315 0 2.951.481 3.881 1.41.93.93 1.411 3.881 1.411 3.881M61.804 129.154s.481-2.95 1.41-3.88c.93-.93 2.567-1.411 3.881-1.411 1.315 0 2.951.481 3.881 1.41.93.93 1.411 2.566 1.411 3.881s-.706 3.175-1.411 3.88c-.706.706-1.411 1.06-2.117 1.765-.705.705-1.058.705-1.764 1.41l-1.764 1.765c-.705.705-1.764 2.116-2.469 3.527-.706 1.412-1.058 3.528-1.058 3.528s-.353-2.116-1.059-3.528c-.705-1.41-1.764-2.822-2.469-3.527l-1.764-1.764c-.706-.706-1.058-.706-1.764-1.411-.706-.706-1.411-1.059-2.117-1.764-.705-.706-1.41-2.566-1.41-3.88 0-1.316.48-2.952 1.41-3.881.93-.93 2.566-1.411 3.881-1.411s2.95.481 3.88 1.41c.93.93 1.412 3.881 1.412 3.881M104.137 129.154s.482-2.95 1.411-3.88c.93-.93 2.566-1.411 3.88-1.411 1.315 0 2.952.481 3.881 1.41.93.93 1.411 2.566 1.411 3.881s-.705 3.175-1.41 3.88c-.706.706-1.412 1.06-2.117 1.765-.706.705-1.059.705-1.764 1.41l-1.764 1.765c-.706.705-1.764 2.116-2.47 3.527-.705 1.412-1.058 3.528-1.058 3.528s-.353-2.116-1.058-3.528c-.706-1.41-1.764-2.822-2.47-3.527l-1.764-1.764c-.705-.706-1.058-.706-1.764-1.411-.705-.706-1.41-1.059-2.116-1.764-.706-.706-1.411-2.566-1.411-3.88 0-1.316.481-2.952 1.41-3.881.93-.93 2.567-1.411 3.881-1.411 1.315 0 2.951.481 3.881 1.41.93.93 1.411 3.881 1.411 3.881M61.804 187.363s.481 2.95 1.41 3.88c.93.93 2.567 1.411 3.881 1.411 1.315 0 2.951-.481 3.881-1.41.93-.93 1.411-2.567 1.411-3.881 0-1.315-.706-3.175-1.411-3.881-.706-.706-1.411-1.058-2.117-1.764-.705-.706-1.058-.706-1.764-1.411l-1.764-1.764c-.705-.706-1.764-2.117-2.469-3.528-.706-1.41-1.058-3.527-1.058-3.527s-.353 2.116-1.059 3.527c-.705 1.411-1.764 2.823-2.469 3.528l-1.764 1.764c-.706.706-1.058.706-1.764 1.41-.706.707-1.411 1.06-2.117 1.765-.705.706-1.41 2.566-1.41 3.88 0 1.315.48 2.951 1.41 3.881.93.93 2.566 1.411 3.881 1.411s2.95-.481 3.88-1.41c.93-.93 1.412-3.881 1.412-3.881M104.137 187.363s.482 2.95 1.411 3.88c.93.93 2.566 1.411 3.88 1.411 1.315 0 2.952-.481 3.881-1.41.93-.93 1.411-2.567 1.411-3.881 0-1.315-.705-3.175-1.41-3.881-.706-.706-1.412-1.058-2.117-1.764-.706-.706-1.059-.706-1.764-1.411l-1.764-1.764c-.706-.706-1.764-2.117-2.47-3.528-.705-1.41-1.058-3.527-1.058-3.527s-.353 2.116-1.058 3.527c-.706 1.411-1.764 2.823-2.47 3.528l-1.764 1.764c-.705.706-1.058.706-1.764 1.41-.705.707-1.41 1.06-2.116 1.765-.706.706-1.411 2.566-1.411 3.88 0 1.315.481 2.951 1.41 3.881.93.93 2.567 1.411 3.881 1.411 1.315 0 2.951-.481 3.881-1.41.93-.93 1.411-3.881 1.411-3.881M82.97 163.55s.482 2.95 1.411 3.88c.93.93 2.566 1.412 3.881 1.412s2.95-.482 3.88-1.411c.93-.93 1.412-2.566 1.412-3.881s-.706-3.175-1.411-3.88c-.706-.706-1.411-1.059-2.117-1.765-.706-.705-1.058-.705-1.764-1.41l-1.764-1.765c-.706-.705-1.764-2.116-2.47-3.527-.705-1.411-1.058-3.528-1.058-3.528s-.352 2.117-1.058 3.528c-.706 1.41-1.764 2.822-2.47 3.527l-1.763 1.764c-.706.706-1.059.706-1.764 1.411-.706.706-1.411 1.059-2.117 1.764-.706.706-1.411 2.566-1.411 3.881s.482 2.95 1.411 3.88c.93.93 2.566 1.412 3.88 1.412 1.315 0 2.952-.482 3.881-1.411.93-.93 1.411-3.881 1.411-3.881M82.97 105.342s.482-2.951 1.411-3.881c.93-.93 2.566-1.411 3.881-1.411s2.95.482 3.88 1.411c.93.93 1.412 2.566 1.412 3.88 0 1.315-.706 3.176-1.411 3.881-.706.706-1.411 1.059-2.117 1.764-.706.706-1.058.706-1.764 1.411l-1.764 1.764c-.706.706-1.764 2.117-2.47 3.528-.705 1.411-1.058 3.528-1.058 3.528s-.352-2.117-1.058-3.528c-.706-1.411-1.764-2.822-2.47-3.528l-1.763-1.764c-.706-.705-1.059-.705-1.764-1.41-.706-.706-1.411-1.059-2.117-1.765-.706-.705-1.411-2.566-1.411-3.88 0-1.315.482-2.951 1.411-3.881.93-.93 2.566-1.411 3.88-1.411 1.315 0 2.952.482 3.881 1.411.93.93 1.411 3.88 1.411 3.88"/></g></svg>