<svg xmlns="http://www.w3.org/2000/svg" width="210mm" height="297mm" viewBox="0 0 210 297"><g transform="matrix(.26458 0 0 .26458 51.94 -66.12)"><rect width="359" height="539" x=".5" y="512.86" rx="29.944" style="fill:#fff;stroke:#000"/><g style="fill:#f55"><path d="M30 609.86s.682-4.182 2-5.5c1.318-1.318 3.637-2 5.5-2s4.182.682 5.5 2c1.318 1.318 2 3.637 2 5.5s-1 4.5-2 5.5-2 1.5-3 2.5-1.5 1-2.5 2l-2.5 2.5c-1 1-2.5 3-3.5 5s-1.5 5-1.5 5-.5-3-1.5-5-2.5-4-3.5-5l-2.5-2.5c-1-1-1.5-1-2.5-2s-2-1.5-3-2.5-2-3.637-2-5.5.682-4.182 2-5.5c1.318-1.318 3.637-2 5.5-2s4.182.682 5.5 2c1.318 1.318 2 5.5 2 5.5M330 954.86s.682 4.182 2 5.5c1.318 1.318 3.637 2 5.5 2s4.182-.682 5.5-2c1.318-1.318 2-3.637 2-5.5s-1-4.5-2-5.5-2-1.5-3-2.5-1.5-1-2.5-2l-2.5-2.5c-1-1-2.5-3-3.5-5s-1.5-5-1.5-5-.5 3-1.5 5-2.5 4-3.5 5l-2.5 2.5c-1 1-1.5 1-2.5 2s-2 1.5-3 2.5-2 3.637-2 5.5.682 4.182 2 5.5c1.318 1.318 3.637 2 5.5 2s4.182-.682 5.5-2c1.318-1.318 2-5.5 2-5.5M100 582.36s1.82-11.153 5.333-14.667c3.514-3.514 9.698-5.333 14.667-5.333 4.969 0 11.153 1.82 14.667 5.333 3.514 3.514 5.333 9.698 5.333 14.667 0 4.969-2.667 12-5.333 14.667-2.667 2.667-5.333 4-8 6.667s-4 2.667-6.667 5.333l-6.667 6.667c-2.667 2.667-6.667 8-9.333 13.333-2.667 5.333-4 13.333-4 13.333s-1.333-8-4-13.333-6.667-10.667-9.333-13.333L80 609.027c-2.667-2.667-4-2.667-6.667-5.333-2.667-2.667-5.333-4-8-6.667S60 587.329 60 582.36c0-4.969 1.82-11.153 5.333-14.667 3.514-3.514 9.698-5.333 14.667-5.333 4.969 0 11.153 1.82 14.667 5.333C98.181 571.207 100 582.36 100 582.36M100 982.36s1.82 11.153 5.333 14.667c3.514 3.514 9.698 5.333 14.667 5.333 4.969 0 11.153-1.82 14.667-5.333 3.514-3.514 5.333-9.698 5.333-14.667 0-4.969-2.667-12-5.333-14.667-2.667-2.667-5.333-4-8-6.667s-4-2.667-6.667-5.333l-6.667-6.667c-2.667-2.667-6.667-8-9.333-13.333-2.667-5.333-4-13.333-4-13.333s-1.333 8-4 13.333-6.667 10.667-9.333 13.333L80 955.693c-2.667 2.667-4 2.667-6.667 5.333-2.667 2.667-5.333 4-8 6.667S60 977.391 60 982.36c0 4.969 1.82 11.153 5.333 14.667 3.514 3.514 9.698 5.333 14.667 5.333 4.969 0 11.153-1.82 14.667-5.333C98.181 993.513 100 982.36 100 982.36M260 982.36s1.82 11.153 5.333 14.667c3.514 3.514 9.698 5.333 14.667 5.333 4.969 0 11.153-1.82 14.667-5.333 3.514-3.514 5.333-9.698 5.333-14.667 0-4.969-2.667-12-5.333-14.667-2.667-2.667-5.333-4-8-6.667s-4-2.667-6.667-5.333l-6.667-6.667c-2.667-2.667-6.667-8-9.333-13.333-2.667-5.333-4-13.333-4-13.333s-1.333 8-4 13.333-6.667 10.667-9.333 13.333L240 955.693c-2.667 2.667-4 2.667-6.667 5.333-2.667 2.667-5.333 4-8 6.667S220 977.391 220 982.36c0 4.969 1.82 11.153 5.333 14.667 3.514 3.514 9.698 5.333 14.667 5.333 4.969 0 11.153-1.82 14.667-5.333 3.514-3.514 5.333-14.667 5.333-14.667M260 582.36s1.82-11.153 5.333-14.667c3.514-3.514 9.698-5.333 14.667-5.333 4.969 0 11.153 1.82 14.667 5.333 3.514 3.514 5.333 9.698 5.333 14.667 0 4.969-2.667 12-5.333 14.667-2.667 2.667-5.333 4-8 6.667s-4 2.667-6.667 5.333l-6.667 6.667c-2.667 2.667-6.667 8-9.333 13.333-2.667 5.333-4 13.333-4 13.333s-1.333-8-4-13.333-6.667-10.667-9.333-13.333L240 609.027c-2.667-2.667-4-2.667-6.667-5.333-2.667-2.667-5.333-4-8-6.667S220 587.329 220 582.36c0-4.969 1.82-11.153 5.333-14.667 3.514-3.514 9.698-5.333 14.667-5.333 4.969 0 11.153 1.82 14.667 5.333 3.514 3.514 5.333 14.667 5.333 14.667M20 542.36v20h10c2.77 0 5 2.23 5 5v15c0 2.77-2.23 5-5 5s-5-2.23-5-5v-5h-5v5c0 5.54 4.46 10 10 10s10-4.46 10-10v-15c0-5.54-4.46-10-10-10h-5v-10h15v-5H25ZM340 1022.36v-20h-10c-2.77 0-5-2.23-5-5v-15c0-2.77 2.23-5 5-5s5 2.23 5 5v5h5v-5c0-5.54-4.46-10-10-10s-10 4.46-10 10v15c0 5.54 4.46 10 10 10h5v10h-15v5h15zM180 762.36s1.82-11.153 5.333-14.667c3.514-3.514 9.698-5.333 14.667-5.333 4.969 0 11.153 1.82 14.667 5.333 3.514 3.514 5.333 9.698 5.333 14.667 0 4.969-2.667 12-5.333 14.667-2.667 2.667-5.333 4-8 6.667s-4 2.667-6.667 5.333l-6.667 6.667c-2.667 2.667-6.667 8-9.333 13.333-2.667 5.333-4 13.333-4 13.333s-1.333-8-4-13.333-6.667-10.667-9.333-13.333L160 789.027c-2.667-2.667-4-2.667-6.667-5.333-2.667-2.667-5.333-4-8-6.667S140 767.329 140 762.36c0-4.969 1.82-11.153 5.333-14.667 3.514-3.514 9.698-5.333 14.667-5.333 4.969 0 11.153 1.82 14.667 5.333 3.514 3.514 5.333 14.667 5.333 14.667"/></g></g></svg>