<svg xmlns="http://www.w3.org/2000/svg" width="210mm" height="297mm" viewBox="0 0 210 297"><g transform="matrix(.26458 0 0 .26458 47.876 -62.055)"><rect width="359" height="539" x=".5" y="512.86" rx="29.944" style="fill:#fff;stroke:#000"/><g style="fill:#f55"><path d="M100 562.36s8 13.333 17.333 22.667C126.666 594.36 140 602.36 140 602.36s-13.333 8-22.667 17.333C108 629.026 100 642.36 100 642.36s-8-13.333-17.333-22.667C73.334 610.36 60 602.36 60 602.36s13.333-8 22.667-17.333C92 575.694 100 562.36 100 562.36M260 562.36s8 13.333 17.333 22.667C286.666 594.36 300 602.36 300 602.36s-13.333 8-22.667 17.333C268 629.026 260 642.36 260 642.36s-8-13.333-17.333-22.667C233.334 610.36 220 602.36 220 602.36s13.333-8 22.667-17.333C252 575.694 260 562.36 260 562.36M180 742.36s8 13.333 17.333 22.667C206.666 774.36 220 782.36 220 782.36s-13.333 8-22.667 17.333C188 809.026 180 822.36 180 822.36s-8-13.333-17.333-22.667C153.334 790.36 140 782.36 140 782.36s13.333-8 22.667-17.333C172 755.694 180 742.36 180 742.36M100 922.36s8 13.333 17.333 22.667C126.666 954.36 140 962.36 140 962.36s-13.333 8-22.667 17.333C108 989.026 100 1002.36 100 1002.36s-8-13.333-17.333-22.667C73.334 970.36 60 962.36 60 962.36s13.333-8 22.667-17.333C92 935.694 100 922.36 100 922.36M260 922.36s8 13.333 17.333 22.667C286.666 954.36 300 962.36 300 962.36s-13.333 8-22.667 17.333C268 989.026 260 1002.36 260 1002.36s-8-13.333-17.333-22.667C233.334 970.36 220 962.36 220 962.36s13.333-8 22.667-17.333C252 935.694 260 922.36 260 922.36M330 932.36s3 5 6.5 8.5 8.5 6.5 8.5 6.5-5 3-8.5 6.5-6.5 8.5-6.5 8.5-3-5-6.5-8.5-8.5-6.5-8.5-6.5 5-3 8.5-6.5 6.5-8.5 6.5-8.5M30 602.36s3 5 6.5 8.5 8.5 6.5 8.5 6.5-5 3-8.5 6.5-6.5 8.5-6.5 8.5-3-5-6.5-8.5-8.5-6.5-8.5-6.5 5-3 8.5-6.5 6.5-8.5 6.5-8.5M20 542.36v20h10c2.77 0 5 2.23 5 5v15c0 2.77-2.23 5-5 5s-5-2.23-5-5v-5h-5v5c0 5.54 4.46 10 10 10s10-4.46 10-10v-15c0-5.54-4.694-11.593-10-10h-5v-10h15v-5H25ZM340 1022.36v-20h-10c-2.77 0-5-2.23-5-5v-15c0-2.77 2.23-5 5-5s5 2.23 5 5v5h5v-5c0-5.54-4.46-10-10-10s-10 4.46-10 10v15c0 5.54 4.46 10 10 10h5v10h-15v5h15z"/></g></g></svg>