<svg xmlns="http://www.w3.org/2000/svg" width="210mm" height="297mm" viewBox="0 0 210 297"><g transform="matrix(.26458 0 0 .26458 51.94 -62.055)"><rect width="359" height="539" x=".5" y="512.86" rx="29.944" style="fill:#fff;stroke:#000"/><g style="fill:#f55"><path d="M100 562.36s8 13.333 17.333 22.667C126.666 594.36 140 602.36 140 602.36s-13.333 8-22.667 17.333C108 629.026 100 642.36 100 642.36s-8-13.333-17.333-22.667C73.334 610.36 60 602.36 60 602.36s13.333-8 22.667-17.333C92 575.694 100 562.36 100 562.36M260 562.36s8 13.333 17.333 22.667C286.666 594.36 300 602.36 300 602.36s-13.333 8-22.667 17.333C268 629.026 260 642.36 260 642.36s-8-13.333-17.333-22.667C233.334 610.36 220 602.36 220 602.36s13.333-8 22.667-17.333C252 575.694 260 562.36 260 562.36M100 922.36s8 13.333 17.333 22.667C126.666 954.36 140 962.36 140 962.36s-13.333 8-22.667 17.333C108 989.026 100 1002.36 100 1002.36s-8-13.333-17.333-22.667C73.334 970.36 60 962.36 60 962.36s13.333-8 22.667-17.333C92 935.694 100 922.36 100 922.36M260 922.36s8 13.333 17.333 22.667C286.666 954.36 300 962.36 300 962.36s-13.333 8-22.667 17.333C268 989.026 260 1002.36 260 1002.36s-8-13.333-17.333-22.667C233.334 970.36 220 962.36 220 962.36s13.333-8 22.667-17.333C252 935.694 260 922.36 260 922.36M330 932.36s3 5 6.5 8.5 8.5 6.5 8.5 6.5-5 3-8.5 6.5-6.5 8.5-6.5 8.5-3-5-6.5-8.5-8.5-6.5-8.5-6.5 5-3 8.5-6.5 6.5-8.5 6.5-8.5M30 602.36s3 5 6.5 8.5 8.5 6.5 8.5 6.5-5 3-8.5 6.5-6.5 8.5-6.5 8.5-3-5-6.5-8.5-8.5-6.5-8.5-6.5 5-3 8.5-6.5 6.5-8.5 6.5-8.5M30 542.36l-10 35v5h12v10h5v-10h3v-5h-3v-15h-5v15h-6.8l10-35zM330 1022.36l10-35v-5h-12v-10h-5v10h-3v5h3v15h5v-15h6.8l-10 35z"/></g></g></svg>