<svg xmlns="http://www.w3.org/2000/svg" width="210mm" height="297mm" viewBox="0 0 210 297"><g transform="matrix(.26458 0 0 .26458 48.214 -75.601)"><rect width="359" height="539" x=".5" y="512.86" rx="29.944" style="fill:#fff;stroke:#000"/><g style="fill:#f55"><path d="M30 609.86s.682-4.182 2-5.5c1.318-1.318 3.637-2 5.5-2s4.182.682 5.5 2c1.318 1.318 2 3.637 2 5.5s-1 4.5-2 5.5-2 1.5-3 2.5-1.5 1-2.5 2l-2.5 2.5c-1 1-2.5 3-3.5 5s-1.5 5-1.5 5-.5-3-1.5-5-2.5-4-3.5-5l-2.5-2.5c-1-1-1.5-1-2.5-2s-2-1.5-3-2.5-2-3.637-2-5.5.682-4.182 2-5.5c1.318-1.318 3.637-2 5.5-2s4.182.682 5.5 2c1.318 1.318 2 5.5 2 5.5M330 954.86s.682 4.182 2 5.5c1.318 1.318 3.637 2 5.5 2s4.182-.682 5.5-2c1.318-1.318 2-3.637 2-5.5s-1-4.5-2-5.5-2-1.5-3-2.5-1.5-1-2.5-2l-2.5-2.5c-1-1-2.5-3-3.5-5s-1.5-5-1.5-5-.5 3-1.5 5-2.5 4-3.5 5l-2.5 2.5c-1 1-1.5 1-2.5 2s-2 1.5-3 2.5-2 3.637-2 5.5.682 4.182 2 5.5c1.318 1.318 3.637 2 5.5 2s4.182-.682 5.5-2c1.318-1.318 2-5.5 2-5.5M90 572.36s1.82-11.153 5.333-14.667c3.514-3.514 9.698-5.333 14.667-5.333 4.969 0 11.153 1.82 14.667 5.333 3.514 3.514 5.333 9.698 5.333 14.667 0 4.969-2.667 12-5.333 14.667-2.667 2.667-5.333 4-8 6.667s-4 2.667-6.667 5.333l-6.667 6.667c-2.667 2.667-6.667 8-9.333 13.333-2.667 5.333-4 13.333-4 13.333s-1.333-8-4-13.333-6.667-10.667-9.333-13.333L70 599.027c-2.667-2.667-4-2.667-6.667-5.333-2.667-2.667-5.333-4-8-6.667S50 577.329 50 572.36c0-4.969 1.82-11.153 5.333-14.667 3.514-3.514 9.698-5.333 14.667-5.333 4.969 0 11.153 1.82 14.667 5.333C88.181 561.207 90 572.36 90 572.36M270 992.36s1.82 11.153 5.333 14.667c3.514 3.514 9.698 5.333 14.667 5.333 4.969 0 11.153-1.82 14.667-5.333 3.514-3.514 5.333-9.698 5.333-14.667 0-4.969-2.667-12-5.333-14.667-2.667-2.667-5.333-4-8-6.667s-4-2.667-6.667-5.333l-6.667-6.667c-2.667-2.667-6.667-8-9.333-13.333-2.667-5.333-4-13.333-4-13.333s-1.333 8-4 13.333-6.667 10.667-9.333 13.333L250 965.693c-2.667 2.667-4 2.667-6.667 5.333-2.667 2.667-5.333 4-8 6.667S230 987.391 230 992.36c0 4.969 1.82 11.153 5.333 14.667 3.514 3.514 9.698 5.333 14.667 5.333 4.969 0 11.153-1.82 14.667-5.333 3.514-3.514 5.333-14.667 5.333-14.667"/><path d="M17.986 547.617c25.643.106 23.89.016 23.89.016l.06 5.602-9.105.052-.161 24.335s.287 3.283-.3 4.691c-.352.843-.775 1.345-1.585 1.765-1.032.535-2.277.872-3.416 1.1-.68.137-1.348.027-2.041-.002-.516-.021-1.011-.23-1.49-.425a6.95 6.95 0 0 1-1.383-.745 6.013 6.013 0 0 1-1.064-.957c-.441-.506-.862-1.05-1.133-1.665-.16-.363-.365-.775-.353-1.172 0 0-.116-1.074-.028-1.593.088-.51.073-1.138.52-1.445.523-.53 1.02-.218 1.02-.218-.057.85.847 1.46 1.683 1.977.363.35 1.884.45 1.884.45s1.959-.019 2.188-.61c0-.356-.004-.92-.004-.92.04-1.311-.237-24.471-.237-24.471h-8.953zM340.698 1011.728c-25.642-.106-23.889-.016-23.889-.016l-.061-5.603 9.105-.05.162-24.336s-.288-3.283.3-4.691c.351-.843.774-1.344 1.585-1.765 1.03-.535 2.276-.872 3.415-1.1.68-.137 1.348-.026 2.041 0 .516.02 1.012.23 1.49.425a6.95 6.95 0 0 1 1.383.745c.39.275.75.598 1.064.958.442.505.862 1.05 1.134 1.664.16.363.365.775.352 1.172 0 0 .117 1.074.028 1.593-.087.51-.073 1.138-.52 1.446-.523.53-1.019.217-1.019.217.056-.85-.848-1.46-1.684-1.977-.363-.349-1.884-.45-1.884-.45s-1.958.019-2.188.61c0 .356.005.92.005.92-.04 1.311.236 24.472.236 24.472h8.953z" style="fill:#fd5858;fill-opacity:1;stroke-width:.999999"/></g><g style="fill:none;stroke:#000;stroke-width:2;stroke-linecap:square"><path d="M50 542.36h280v380M310 1022.36H30v-380M30 782.36h300"/></g><g style="stroke:#000"><g style="fill:#55a"><path d="m318.37 746.49-.25 5.625-.25 4-1 3.5-1 3.75-.875 2.125.375 2.75-.25 4.25-.375 2.375-1.125 3-1 2.875-.75 1.25-42.875-.25-.875-1.5-1.375-3.75-1.125-2.25-1.125-3.375-.75-5.25-.5-5 .125-3-.625-2.375-.5-3.75-1.125-4-1.5-2.375-.5-2.75-.625-2.75-.625.375-1.375 4.375-1.75 4.125-.75 3-1.25 4.125-.875 2.25-.5 3.125.125 3.625-.375 1.375-.125 1.75-.5.75-2.875 1.875-3.125 1.5-4.375.875-4.75 1.125-4.125.375-4.75.5-2.875-.25 12.375-13.5 8.875-9.375 6.125-8 6.75-9.125 8.375-13.75 3.25-5.875 11.75-19.875 3.375-4.75 6.75-.25.375 36-1 .375-3.75 4.75-1.25 2.125-5.25 8.875-1.375 2.75-1.125 1.75 3.625 4.625 5 3.375 3.5 1.5 5.75-.375 4.875-1h3.75l5.375-2.5 4-2.25z" style="stroke-linecap:round;stroke-linejoin:round"/><path d="m208 673.86-2.25 38.5s12.03-17.705 17.75-26.75c5.354-8.468 15.5-25.75 15.5-25.75l-15.5-6zM98 676.11c4.795-2.727 9.879-4.803 14.936-6.971 7.281-3.01 13.874-8.777 21.479-11.01 6.695-2.423 13.39-3.596 20.09-6.02-.019 10.318.397 20.652.099 30.961l-4.098 53.04-5 4.5c-4.597-2.906-9.618 4.187-12.12 2.092-11.795-22.2-23.59-44.39-35.38-66.59z"/></g><path d="m153.75 168.5-2 15-1 18.25-1 16.25 1.75 43.5 51.75-22.25L206.5 194l1-18.25.75-13.25L195 149.25l-25.5-.5-10.75 7.75z" style="fill:#a00" transform="translate(0 512.36)"/><path d="M175.5 156.25 173.75 167l-1 13.75-.75 16.5-.25 10.75-.75 12 11-3.25-.25-15.75 1-22 1.5-15 .75-8.25-5.25.75z" style="fill:#fa5" transform="translate(0 512.36)"/><path d="m180 156.75-1.25 8.5-1.25 11-.5 15.25-.5 11.5v8.75l-.25 6.75" style="fill:none" transform="translate(0 512.36)"/><g style="fill:#fa5"><g style="stroke-linecap:round;stroke-linejoin:round"><path d="M165.75 698.86a3.875 4 0 1 1-7.75 0 3.875 4 0 1 1 7.75 0zM166.375 682.61a3.875 4 0 1 1-7.75 0 3.875 4 0 1 1 7.75 0zM165.125 715.86a3.875 4 0 1 1-7.75 0 3.875 4 0 1 1 7.75 0zM199.125 683.61a3.875 4 0 1 1-7.75 0 3.875 4 0 1 1 7.75 0zM197.875 699.11a3.875 4 0 1 1-7.75 0 3.875 4 0 1 1 7.75 0zM197.625 715.61a3.875 4 0 1 1-7.75 0 3.875 4 0 1 1 7.75 0z"/></g><path d="M130 774.86h14.5c2.056-.882 4.199-1.585 6.099-2.79 1.611-.919 3.266-1.796 4.787-2.846.813-.753 1.473-1.718 2.562-2.088l2.551-1.276c-.146-.451.32-1.513-.289-1.5-1.594-.119-3.147.249-4.711.5-1.356-.115-2.749-.112-4.083-.3-1.276-.82-2.668-1.492-3.872-2.405-1.12-1.163-2.335-2.25-3.397-3.46-.623-1.065-1.353-2.093-1.91-3.182-.17-2.045-.636-4.081-.398-6.137.103-1.058.019-2.162.239-3.192.461-.884.745-1.899 1.315-2.701l1.855-1.623v-1.75c-.862-.215-1.732-.605-2.59-.715-1.683.649-3.399 1.225-4.943 2.175-1.306.82-2.781 1.26-4.217 1.79l-3.5 31.5z"/></g><path d="M152.91 655.32a14.29 14.29 0 0 0-1.775 11.378c.87 4.154 3.175 8.173 2.328 12.533-.006 3.19 2.666.992 2.939-.815 3.01-4.224 7.691-7.06 12.526-8.731 3.788-.777 7.715-1.585 11.556-.654 3.881.216 7.816-1.465 11.658-.095 3.52 1.089 4.858 5.06 7.966 6.89 2.336.811 1.775 4.785 3.778 4.685 1.838-.092 2.756-5.633 5.379-7.548 2.757-3.867 6.929-6.534 9.176-10.781 1.854-3.177 5.05-5.662 5.417-9.56 1.376-4.762 2.821-10.324-.248-14.777-2.272-4.06-7.215-4.739-11.286-5.869-17.09-3.735-35.654-.463-50.46 8.845-2.862 1.823-6.06 3.841-6.857 7.402-.767 2.345-1.121 4.818-2.094 7.096z" style="fill:#fff"/><g style="stroke-linecap:round;stroke-linejoin:round"><path d="M30.75 687.77c7.725-3.934 9.3-12.13 9.689-18.482 6.103 1.594 13.632 2.128 20.07 2 9.609-.579 20.1-4.75 28.06-9.887 3.789 4.907 6.766 10.915 12.328 18.755 10.04 14.887 21.2 29.09 29.518 45.04 3.174 10.938 3.643 16.13 3.63 23.968.055 12.304-1.388 21.574-5.764 29.922-2.452 2.672-3.313 3.146-8.325 3.02h-51.2c-7.124-4-14.4-7.759-20.03-13.841-6.924-7.312-10.941-12.846-18.218-20.16.167-20 .083-40.34.25-60.34z" style="fill:#fa5"/><path d="M30.406 714.01c2.269-.809 4.793-1.154 6.902-2.256 3.189-2.777 6.473-5.536 9.179-8.785 1.876-2.591 3.969-5.057 4.982-8.145.579-1.368 1.142-3.452 3.049-3.088 3.846.021 7.701.152 11.482-.679 4.921-.954 9.894-2.112 14.449-4.234 1.91-1.17 2.29-1.237 3.493.889 4.096 6.73 8.334 12.333 13.08 18.619 4.944 7.03 7.611 11.09 10.562 16.835 1.763 3.081 3.03 5.771 4.04 9.181 1.265 4.02 2.077 8.189 2.276 12.404.56 7.607-.672 15.21-2.175 22.646-3.675 1.137-7.58.918-11.374 1.213-4.794-.59-9.663-.799-14.412-1.6-5.289-1.609-10.731-3.148-15.313-6.348-2.792-1.898-6.13-3-8.355-5.648-3.37-3.497-6.65-7.114-9.748-10.854-5.317-6.972-8.263-9.439-13.865-16.182-1.497-1.866-5.531-6.192-8.156-8.868l-.094-5.101z" style="fill:#aaa"/><g style="fill:none"><path d="m30.25 710.36 4.25-1.25 4.25-2.75 5-5.25 3.5-5 2-5.75.75-2 1.25-.5 5.5.75 7.25-.5 8.25-1.5 5-1.75 3.5-1.5c1.665-.573 1.841-1.025 3.25-1.25l7 10.5s9.216 13.13 13.75 19.75c2.443 3.565 5.33 6.878 7.25 10.75 2.072 4.179 3.532 8.687 4.5 13.25.955 4.502 1.346 9.149 1.25 13.75-.053 2.522-.614 5.01-1 7.5-.44 2.843-1.5 8.5-1.5 8.5l-1.5 4.5-7 1-8.25-.25-8-1-8-1.25-8.5-3-8-4.25-6.25-4-4-4.5-20.25-23.5-5.25-6.5Z"/><path d="M30.25 691.86c2.797-1.029 6.277-1.543 7.714-4.496 2.72-3.526 5.03-7.51 5.536-12 1.89-1.055 4.132.427 6.204.32 4.676.68 9.507.766 14.08-.543 5.331-1.033 10.746-1.972 15.592-4.564 2.461-1.089 7.87-3.964 7.87-3.964s.464.619 4.71 6.723c10.253 15.187 19.49 28.1 29.593 43.38 2.759 4.466 5.554 9 6.8 14.155 2.42 8.695 1.809 17.809 2.147 26.74-1.645 7.533-2.301 15.621-6.557 22.243-.902 1.934-2.379 2.717-4.478 2.257h-42.22c-6.158-2.987-12.709-5.41-18.226-9.461-6.163-4.525-11.5-10.16-16.178-16.257-4.136-4.722-8.139-9.61-12.846-13.782l.25-50.75z"/></g><g style="fill:#fa5"><path d="M51.25 682.61a3.25 3.25 0 1 1-6.5 0 3.25 3.25 0 1 1 6.5 0zM69.75 680.36a3.25 3.25 0 1 1-6.5 0 3.25 3.25 0 1 1 6.5 0zM87.75 675.36a3.25 3.25 0 1 1-6.5 0 3.25 3.25 0 1 1 6.5 0zM99 688.61a3.25 3.25 0 1 1-6.5 0 3.25 3.25 0 1 1 6.5 0zM111.75 707.36a3.25 3.25 0 1 1-6.5 0 3.25 3.25 0 1 1 6.5 0zM123.25 726.86a3.25 3.25 0 1 1-6.5 0 3.25 3.25 0 1 1 6.5 0zM127.25 749.36a3.25 3.25 0 1 1-6.5 0 3.25 3.25 0 1 1 6.5 0zM120.75 775.61a3.25 3.25 0 1 1-6.5 0 3.25 3.25 0 1 1 6.5 0zM100 777.11a3.25 3.25 0 1 1-6.5 0 3.25 3.25 0 1 1 6.5 0zM80.25 774.86a3.25 3.25 0 1 1-6.5 0 3.25 3.25 0 1 1 6.5 0zM61.75 764.11a3.25 3.25 0 1 1-6.5 0 3.25 3.25 0 1 1 6.5 0zM46 747.61a3.25 3.25 0 1 1-6.5 0 3.25 3.25 0 1 1 6.5 0zM36.75 699.86a3.25 3.25 0 1 1-6.5 0 3.25 3.25 0 1 1 6.5 0z"/></g></g><path d="M148.08 738.92c3.896-2.988 5.875-5.235 11.427-8.585 2.871-1.733 3.638-3.544 7.491-4.481 3.853-.937 10.564-1.081 14.28-1.644 4.415-.669 5.508-.268 10.08.107 1.661-.023 8.246-1.107 6.786.313-3.233 4.818-9.163 11.611-14.01 17.198-4.35 5.02-7.979 10.966-13.506 14.65-2.131 1.421-4.978 1.392-7.218 2.634-1.338.741-2.256 2.126-3.619 2.821-2.872 1.465-6.135 3.333-9.293 2.682-2.957-.61-5.482-3.14-7-5.75-1.743-2.997-1.925-6.787-1.763-10.25.103-2.192.471-4.549 1.719-6.355 1.081-1.564 3.114-2.183 4.622-3.34z" style="fill:#faa;fill-opacity:.982"/><g style="fill:none;stroke-linecap:round;stroke-linejoin:round"><path d="M191.73 732.82s-5.909-1.058-8.891-1.01c-2.709.047-8.04 1.194-8.04 1.194M183.79 741.65s-4.165-.729-6.268-.704c-1.64.019-4.877.664-4.877.664M177.75 748.9s-3.582-.318-5.364-.155c-.789.072-2.323.498-2.323.498M164.4 749.19c.072-.861 1.042-1.223 1.237-1.945M164.23 742.12c.302-.563 1.01-.816 1.414-1.238M164.93 734.52c.052-.814.898-1.235 1.591-1.414"/></g><path d="m144.6 775 7.601-3.889 6.187-3.889 5.834-5.127 5.834-5.303 10.43-10.607 9.02-11.49 8.485-10.96 9.02-12.728 12.728-19.799 12.02-18.562 6.364-12.02 4.596-7.955 10.783 6.541 8.132 5.303 6.01 5.303 2.298 1.061-4.419 9.192-11.314 20.683-12.374 19.445-17.15 22.627-10.43 12.198-10.607 10.43-10.96 9.546z" style="fill:#a00"/><g style="fill:none"><path d="M154.15 774.99c13.811-7.172 23.308-19.882 33.17-31.518 19.886-23.47 36.25-49.831 51.723-76.43a424.35 424.35 0 0 0 6.716-12.488M266.68 668.97c-13.454 32.796-34.462 60.63-57.58 86.38-6.079 6.771-14.521 14.44-22.401 19.636"/></g><path d="M152.93 577.27c-3.865 1.303-8.23-1.145-10.562-4.26-3.267-3.814-1.465-9.225.158-13.338 2.766-4.805 7.679-7.839 12.02-11.09 10.576-5.416 22.842-5.64 34.466-5.793 8.855.132 18.03.512 26.295 3.972 7.777 3.946 15.584 10.766 20.633 18.315 5.712 7.551 10.552 15.93 11.244 25.659.204 4.279-3.613 7.324-6.951 9.276-4.068 1.237-9.285 1.152-12.315-2.28-5.124-4.52-7.526-11.12-11.784-16.301-4.226-4.635-10.41-6.676-16.05-9-10.03-2.846-20.566-3.487-30.949-3.611-5.306.481-11.391.373-15.485 4.328-1.09 1.263.162 2.969-.717 4.123z" style="fill:#55a"/><g style="stroke-linecap:round;stroke-linejoin:round"><path d="M153.5 582.11c-2.943 2.403-4.21 7.409-7.219 10.392-2.053 4.641 1.341 10.265-1.506 14.615-1.823 3.628-.856 8.105-4.774 10.743-1.197 5.132-.256 9.712-3.03 14.557-2.33 1.82.869 7.146-4.39 4.769-7.08.562-2.72 11.268-8.27 13.445-3.12 3.64-.834 8.466 2.509 10.332 3.02 2.34 7.182-3.053 11.183-2.352 4.67-.896 9.304-1.773 13.37-4.288 3.621-2.638 7.399-2.498 9.719-5.386 2.699-3.36 3.106-7.285 3.681-12.395 2.503-13.358 4.76-27.35 1.415-40.763-1.597-6.297-5.989-12.339-12.685-13.668z" style="fill:#a50"/><g style="fill:none"><path d="M139.01 626.2c.697 2.183-.264 10-1.044 12.554-.675 2.207-.132 6.326-2.473 6.641-1.847.248-5.855-1.848-4.139-4.04 1.194-1.525 3.57.019 3.57.019"/><path d="M152.9 595.78c-2.726 7.509-3.497 15.488-5.231 23.24-.628 2.805-1.5 5.567-1.873 8.418-.705 5.389.954 11.11-.674 16.291-.742 2.365-2.597 4.224-3.994 6.272-1.575 2.31-2.475 5.462-4.942 6.778-2.135 1.139-5.766 2.195-7.254.287-1.366-1.752-.337-6.215 1.878-6.396 1.351-.11 4.445 2.294 1.763 3.666"/><path d="M126.15 649.21c2.02-1.845 5.441-2.086 7.958-.69 1.934 1.263 4.338-.054 5.168-1.958 1.274-1.869 2.01-4.672 2.13-6.998.661-2.503.893-5.077.896-8.92 1.114-3.53.326-4.353 1.565-8.148.526-5.01 1.804-8.317 3.145-11.54 1.789-3.92 1.588-8.278 1.873-12.472.477-3.691 1.589-7.615 4.317-10.283"/></g></g><g style="fill:none"><path d="M152.9 611.86c-1.872 4.111-2.564 8.615-3.278 13.04-.748 4.634-.332 9.404-1.04 14.04-.699 4.58-1.265 9.306-3.154 13.537-.961 2.153-2.5 4.03-4.057 5.796M152.9 624.91c-.461 6.352-.625 12.755-1.758 19.02-.604 3.34-1.095 6.822-2.675 9.826-.611 1.162-1.59 2.108-2.545 3.01"/><g style="stroke-linecap:round;stroke-linejoin:round"><path d="M151.99 654.03c1.112-3.953 2.744-5.067 2.847-10.569.045-2.4 2.315-4.556 1.324-7.079M159.88 642.2c-1.745 2.272-1.33 2.969-1.947 4.473-.676 1.648-.719 3.339-1.923 4.986"/></g></g><path d="M154 577.61c-1.228 2.108-.833 4.816-1 7.25-.137 1.995-.105 4 0 6 .083 1.59.37 3.163.5 4.75.116 1.414.256 2.831.25 4.25-.001 2.506-.21 5.01-.5 7.5-.176 1.51-.625 2.984-.75 4.5-.213 2.575-.103 5.169 0 7.75.083 2.088.051 4.209.5 6.25.362 1.648 1.243 3.141 1.75 4.75.492 1.562.621 3.239 1.25 4.75.632 1.517 1.644 2.847 2.5 4.25.975 1.599 1.913 3.225 3 4.75.929 1.304 2.248 2.337 3 3.75.656 1.233.807 2.675 1.25 4 .393 1.175.72 2.38 1.25 3.5.623 1.318 1.464 2.522 2.25 3.75 1.196 1.869 2.242 3.872 3.75 5.5 1.088 1.174 2.328 2.266 3.75 3a9.473 9.473 0 0 0 3.5 1c1.586.138 3.196-.153 4.75-.5 1.98-.442 4.054-.886 5.75-2 2.367-1.553 3.79-4.207 5.75-6.25 1.795-1.871 3.713-3.621 5.5-5.5 1.627-1.71 3.24-3.436 4.75-5.25a72.746 72.746 0 0 0 3.25-4.25c1.397-1.956 2.988-3.82 4-6a38.22 38.22 0 0 0 3.25-11.25c.344-2.73.005-5.511-.25-8.25-.399-4.283-1.089-8.545-2-12.75-.659-3.043-1.614-6.02-2.5-9-.945-3.184-1.913-6.362-3-9.5-1.312-3.788-1.489-8.344-4.25-11.25-2-2.11-5.212-2.662-8-3.5-4.212-1.266-8.606-2.061-13-2.25-2.925-.126-5.827.588-8.75.75-3.329.184-6.702-.239-10 .25-2.48.367-5 .885-7.25 2-1.597.793-3.352 1.709-4.25 3.25z" style="fill:#faa"/><path d="M162.62 632.99c.327-1 1.467-1.285 2.222-1.877.556-.42.902-1.192 1.689-1.227.882-.113 1.95.019 2.475.826.532.49 1.583.418 1.591-.352.446-.371 1.586-.326 2.095-.297 1.415.298 2.07.923 3.329 1.631.521.264 1.315.472 1.35 1.17-.211.784-1.362.555-1.736 1.249-.825.978-1.311 1.137-2.203 2.066-.671.859-1.456 1.791-2.608 1.941-1.369.218-2.753-.102-4.08-.425-.869-.24-1.774-.735-2.059-1.654-.233-.792-.749-.372-1.189-1.053-.338-.58-.616-1.197-.88-1.81l-.009-.095.014-.095z" style="fill:#f55"/><path d="M154.36 578.16c2-.131 2.796-1.099 5.518-1.896 3.253-1.406 6.684-1.692 10.165-1.491 6.381.026 12.818-.382 19.15.547 6.571 1.425 13.239 2.934 19.277 5.985 2.042 1.203 3.995 2.565 5.997 3.806 2.33.368 3.203-3.56 1.501-4.866-2.305-2.426-5.651-3.377-8.474-5.04-9.06-4.287-19.1-6.143-29.06-6.663-7.06-.095-14.368-.377-21.11 2.081-2.297.794-4.481 2.794-5.121 5.385-.64 2.591.147 2.282 2.151 2.151z" style="fill:#fa5"/><g style="fill:none;stroke-linecap:round"><path d="M153 590.11c2.953.213 5.916.287 8.876.264 1.259.948 3.25 1.64 3.294 3.497.191 2.051.843 4.081.671 6.151-.328 1.926-1.083 3.747-1.478 5.66-.844 3.351-1.732 6.707-2.36 10.1-.722 2.682.21 3.881 1.98 4.68.855 1.04 1.283 2.763 2.806 2.991 2.078-.034 2.232-2.711 3.88-3.414 1.416-.406 2.885.333 3.795 1.407 1.616.305 2.206-1.71 1.992-2.975-.186-1.241-1.028-2.393-2.206-2.861" style="stroke-linejoin:round"/><path d="M198.25 594.61c-1.399-.798-2.866-1.523-4.11-2.556-.726-.728-1.355-1.693-2.45-1.876-1.638-.367-3.315.051-4.971-.086-2.178-.048-4.357.006-6.533.072-1.057.109-2.123.368-3.07.854-1.015.499-.808 1.692-.616 2.592"/><path d="M154 596.36s2.795-1 4.25-1 2.865.552 4.25 1c1.02.33 2.97 1.235 2.97 1.235" style="stroke-linejoin:round"/></g><path d="M154.12 599.99s3.492-1.643 5.375-1.875c.914-.112 1.885-.064 2.75.25 1.239.449 3.25 2.25 3.25 2.25l-1.25 3.25s-2.156.551-3.25.75c-1.241.225-2.49.55-3.75.5-1.192-.047-3.5-.75-3.5-.75z" style="fill:#fff"/><g style="stroke-linecap:round;stroke-linejoin:round"><path d="M179.25 597.86s1.919-1.213 3-1.5c1.452-.386 2.998-.208 4.5-.25.833-.023 1.682-.158 2.5 0 1.322.255 2.559.873 3.75 1.5 1.064.56 2 1.333 3 2l.75.5" style="fill:none"/><path d="M179.25 602.86c.621-.876 1.115-1.903 2-2.5.721-.487 1.639-.624 2.5-.75 1.814-.266 3.674-.16 5.5 0 1.433.125 2.812.704 4.25.75.754.024 1.923-.93 2.25-.25.613 1.275-1.906 2.103-3 3-.929.762-1.86 1.618-3 2-1.346.451-2.835.358-4.25.25-1.19-.091-2.396-.298-3.5-.75-1.01-.412-2.13-.767-2.75-1.75z" style="fill:#fff"/><g style="fill:#55a"><path d="M187.75 90a2.25 2 0 1 1-4.5 0 2.25 2 0 1 1 4.5 0z" style="stroke-width:.792" transform="matrix(1.16369 0 0 1.37165 -30.11 479.04)"/><path d="M161 601.485a2.5 2.625 0 1 1-5 0 2.5 2.625 0 1 1 5 0z"/></g><path d="M186.75 602.485a.625.875 0 1 1-1.25 0 .625.875 0 1 1 1.25 0zM159 601.735a.5.625 0 1 1-1 0 .5.625 0 1 1 1 0z"/></g><path d="M162.62 633.24c.943-.071 1.896-.076 2.822-.287.766-.213 1.039.719 1.714.833.998.26 2.069.418 3.089.203.656-.207 1.168-.7 1.794-.977.633-.432 1.422-.522 2.16-.358.827.054 1.594.438 2.422.46.172-.011.338-.07.5-.125" style="fill:#f55"/><path d="M167.5 626.36c-1.035.851-.753 2.441-1.641 3.426-.756 1.592-2.078 2.989-3.893 3.271-1.815.417-3.889.251-5.319-1.056-1.227-1.305-3.486-1.146-4.44-2.679.353-1.739 2.722-.091 3.788.258 1.605.941 3.01-1.054 3.583-2.346.402-1.899 2.285-1.816 3.778-1.994 1.206-.6 2.38-1.357 3.782-1.372a12.969 12.969 0 0 1 5.748.622c1.77.546 4.04-.627 5.427 1 1.087 1.372 2.079 2.853 3.371 4.04 1.834 1.15 4.183.67 6.145.142 1.145-.628 2.335-1.301 3.698-1.142 1.521-.145 3.621 1.37 2.859 2.972-1.698 1.247-1.857-2.01-3.51-1.083a24.997 24.997 0 0 0-5.393 2.596c-1.949.71-4.068.462-6.091.774-1.414.217-2.479-.841-3.263-1.865-1.158-1.224-2.921-1.546-4.205-2.613-1.317-.648-2.178-1.877-2.638-3.088-.565-.259-1.262-.189-1.786.133z" style="fill:#a50"/><g style="stroke-linecap:round;stroke-linejoin:round"><path d="M163.52 647.01c1.154 1.297 2.02 2.92 3.438 3.924 1.817 1.284 4.061 1.857 6.199 2.471.74.212 1.503.388 2.272.412 2.377.074 4.805-.157 7.084-.832 1.927-.57 3.635-1.721 5.407-2.67 1.902-1.019 3.874-1.952 5.602-3.245 2.527-1.891 4.651-4.271 6.864-6.521a36.032 36.032 0 0 0 2.024-2.201" style="fill:none"/><g style="fill:#aaf"><path d="m296.28 542.54-.707 6.718-2.475 12.374-1.768 6.364-1.414 5.303-2.121 4.243v2.121l6.01.354-.354 13.789-2.121 1.414v2.828l-1.768 1.061-.354 1.414 2.828.707v19.799l.25 44.634 9.942 5.846-.5-49.937 1.021-20.57 1.661-1.186.707-1.061-.354-3.889-2.121-1.061-.354-1.061-.354-12.728 6.093.621.271-1.328-2.828-8.485-2.475-10.607-1.414-8.485-1.061-4.95-.354-4.243z"/><path d="M272.24 555.62c-3.384 4.486-7.218 8.66-10.257 13.39-2.632 4.097-5.05 8.376-6.855 12.901-1.635 4.108-2.799 8.426-3.528 12.787a73.192 73.192 0 0 0-.927 14.925 66.446 66.446 0 0 0 1.875 13.191 62.493 62.493 0 0 0 4.073 11.484 85.67 85.67 0 0 0 8.318 14.12c1.827 2.515 3.652 5.174 6.177 6.987.968.696 2.414 3.499 3.296 1.389 3.048-4.03 6.095-8.05 9.142-12.08-1.383-1.87-3.378-3.396-4.282-5.551-.873-2.08-1.22-4.466-.928-6.703.327-2.506 1.282-5.079 2.934-6.991 1.731-2 4.264-3.346 6.8-4.104 2.87-.858 5.996-.155 8.979-.34 2.562.101 5.25-.452 7.565.932 1.626.222 1.976 2.137 2.267 3.459.599 1.296-1.13 3.729-.207 4.049 1.792-.175 4.05.676 5.413-.714 1.756-.536 1.388-2.908 1.578-4.443.14-2.655 2.095-4.698 3.319-6.946 1.12-1.899 2.568-3.546 4.04-5.175-1.625-1.312-3.577-2.348-4.253-4.463-1.401-1.945-1.762-4.247-2.064-6.568-.235-1.818.465-3.845-.919-5.343-.308-1.347-3.192-1.975-3.01-.097-.536 2.403-.737 3.61-2.484 5.326-2.049-.022-4.613-.228-6.706.229-4.721.039-9.557.676-14.15-.396-2.232-.521-4.434-1.471-6.249-2.87-1.595-1.229-2.963-2.852-3.836-4.667-.749-1.557-1.146-3.345-1.074-5.071.08-1.917.723-3.837 1.658-5.512 1.287-2.305 2.901-4.576 5.259-5.922l-10.96-21.21z"/></g></g><path d="M269 608.3s.455-2.788 1.333-3.667c.878-.878 2.424-1.333 3.667-1.333 1.242 0 2.788.455 3.667 1.333.878.878 1.333 2.424 1.333 3.667 0 1.242-.667 3-1.333 3.667-.667.667-1.333 1-2 1.667s-1 .667-1.667 1.333l-1.667 1.667c-.667.667-1.667 2-2.333 3.333-.667 1.333-1 3.333-1 3.333s-.333-2-1-3.333c-.667-1.333-1.667-2.667-2.333-3.333L264 614.967c-.667-.667-1-.667-1.667-1.333-.667-.667-1.333-1-2-1.667S259 609.543 259 608.3c0-1.242.455-2.788 1.333-3.667.878-.878 2.424-1.333 3.667-1.333 1.242 0 2.788.455 3.667 1.333.878.878 1.333 3.667 1.333 3.667z" style="fill:#f55"/><g style="fill:none"><path d="M293.8 580.01c.631-3.873 1.428-7.717 2.04-11.594.849-4.639.662-7.599 1.366-14.05.254-4.062.292-9.989.837-12.181.954 2.027 1.246 8.465 1.162 12.329.89 6.839.81 10.388 1.311 13.917.205 3.491 1.257 8.722 1.321 11.322" style="stroke-linecap:round;stroke-linejoin:round"/><path d="M293.45 593.45c2.711.118 8.999-.652 8.632-.021M290.97 598.4l13.664-.043"/></g><g style="stroke-linecap:round;stroke-linejoin:round"><path d="M316 717.61c.639-.78 1.13-2.853 2.046-1.204.846.741.438 2.181.248 3.176-.403 1.428-.647 3.192.411 4.386.822 1.316 1.816 2.729 2.01 4.266-.514 3.144.422 6.262.784 9.376.196 1.288.831 2.344 1.75 3.25-.076 1.192-.211 2.359-1.187 3.172-3.346 2.622-6.684 5.327-10.495 7.259-3.266 1.673-6.593 3.706-10.376 3.706-3.088.014-6.02 1.513-9.127.997-1.498-.078-3.057.072-4.324-.889-2.109-1.062-4.338-1.945-5.974-3.715-1.767-1.348-3.163-3.11-4.266-5.03 2.74-5.154 5.877-10.07 9-15 .685-1.66 1.491-3.273 2-5 1.366-.446 1.968.725 3.034 1.178 1.724.574 3.417 1.344 5.279 1.072 2.627-.126 5.352.409 7.843-.647 2.694-.613 5.112-1.942 7.594-3.103 1.246-1.969 2.738-3.877 3.75-5.938v-1.312z" style="fill:#fa5"/><g style="fill:none"><path d="M266.25 764.36c.862-1.863 1.675-3.753 2.568-5.598 1.508-2.16 2.984-4.346 4.512-6.49l4.67-5.161c-1.343 2.206-2.731 4.39-4.046 6.61-.985 2.401-2 4.792-2.966 7.198-.322 1.688-.706 3.369-.988 5.061v7.131M315 765.86c-1.34 2.186-2.696 4.364-4.03 6.556-.849 1.804-1.663 3.624-2.575 5.397l-.149.298"/></g><path d="m56 774.86-.5 7h13z" style="fill:#55a"/><path d="m124.75 269.5 131-.25s.061-1.835 0-2.75c-.083-1.258-.313-2.503-.5-3.75-.15-1-.283-2.01-.5-3-.203-.928-.273-1.928-.75-2.75a2.834 2.834 0 0 0-1-1c-.523-.308-1.75-.5-1.75-.5s-3.95 3.09-6.25 4c-3.389 1.341-7.124 1.627-10.75 2-3.98.409-8 .182-12 .25-6.416.108-12.834.151-19.25.25-4.667.072-9.334.158-14 .25-7.667.152-15.332.478-23 .5-5.167.014-10.333-.166-15.5-.25-5.083-.083-10.169-.081-15.25-.25-1.668-.055-5-.25-5-.25s-1.182 3.361-2.25 4.75c-.865 1.125-3.25 2.75-3.25 2.75z" style="fill:#fa5" transform="translate(0 512.36)"/></g><g style="fill:none"><path d="M129.58 777.12c28.2.318 56.41.368 84.6-.189 7.765-.153 15.945.209 23.282-.868 6.06-.89 9.453-1.629 16.569-5.66"/><path d="m129.58 264.58 2.298 4.773 2.828-4.419 3.182 4.596 3.01-4.419 2.652 4.066 2.828-3.889L149.03 269l3.359-3.889 2.828 4.419 3.182-4.419 2.652 4.243 3.01-4.066 3.01 4.243 3.01-4.066 2.828 3.889 3.182-4.419 2.475 3.889 3.182-3.712 2.652 4.066 3.182-3.889 2.298 3.889 3.182-4.066 2.828 4.419 3.01-4.419 2.828 3.889 3.359-3.889 2.652 4.066 2.828-4.243 2.652 3.889 3.01-4.066 3.182 4.419 2.828-4.419 2.828 4.243 3.182-4.773 3.182 4.95 2.475-5.127 3.01 5.127 2.828-5.834 2.652 5.303 2.475-6.364 3.182 6.364 1.768-8.485 5.303 8.485" style="stroke-linecap:round;stroke-linejoin:round" transform="translate(0 512.36)"/></g><g style="stroke-linecap:round;stroke-linejoin:round"><path d="m192.16 262.05 32.09.198s6.659-7.507 10-11.25c4.323-4.843 8.971-9.411 13-14.5 5.611-7.087 10.686-14.6 15.5-22.25 3.876-6.159 7.07-12.723 10.75-19 2.517-4.29 5.344-8.397 7.75-12.75 1.713-3.099 5.302-6 4.75-9.5-1.094-6.927-14.75-15-14.75-15h-1.5s-9.566 20.329-15.25 30c-5.294 9.01-11.35 17.555-17.5 26-5.555 7.627-11.379 15.07-17.5 22.25-3.826 4.488-7.914 8.747-12 13-2.205 2.295-4.315 4.701-6.75 6.75-2.681 2.256-8.593 6.05-8.593 6.05z" style="fill:#fa5" transform="translate(0 512.36)"/><g style="fill:none"><path d="M268.5 673.11s4.265 2.173 6.25 3.5a39.202 39.202 0 0 1 4.75 3.75c1.258 1.158 2.36 2.476 3.5 3.75 1.024 1.145 3 3.5 3 3.5M267.25 675.86s4.265 2.173 6.25 3.5a39.202 39.202 0 0 1 4.75 3.75c1.258 1.158 2.36 2.476 3.5 3.75 1.024 1.145 3 3.5 3 3.5M266 678.61s4.02 1.985 5.893 3.198a36.88 36.88 0 0 1 4.479 3.427c1.186 1.058 2.225 2.262 3.3 3.427.966 1.047 2.829 3.198 2.829 3.198M264.25 681.74s3.96 1.948 5.804 3.138a36.977 36.977 0 0 1 4.411 3.362c1.168 1.038 2.191 2.22 3.25 3.362.951 1.027 2.786 3.138 2.786 3.138M262.75 684.74s4.02 1.985 5.893 3.198a36.88 36.88 0 0 1 4.479 3.427c1.186 1.058 2.225 2.262 3.3 3.427.966 1.047 2.829 3.198 2.829 3.198M261.37 687.92s3.96 1.873 5.804 3.02a36.407 36.407 0 0 1 4.411 3.233c1.168.998 2.191 2.134 3.25 3.233.951.987 2.786 3.02 2.786 3.02M260.12 690.67s3.778 1.836 5.536 2.957a34.113 34.113 0 0 1 4.207 3.168c1.114.978 2.09 2.091 3.1 3.168.907.968 2.657 2.957 2.657 2.957M258.87 693.42s3.717 1.873 5.446 3.02a34.142 34.142 0 0 1 4.139 3.233c1.096.998 2.057 2.134 3.05 3.233.893.987 2.614 3.02 2.614 3.02M256.87 696.3s3.839 1.836 5.625 2.957a34.68 34.68 0 0 1 4.275 3.168c1.132.978 2.124 2.091 3.15 3.168.922.968 2.7 2.957 2.7 2.957M255.87 699.3s3.656 1.873 5.357 3.02a33.683 33.683 0 0 1 4.071 3.233c1.078.998 2.023 2.134 3 3.233.878.987 2.571 3.02 2.571 3.02M254.06 701.77s3.717 2.023 5.446 3.259a34.634 34.634 0 0 1 4.139 3.491c1.096 1.078 2.057 2.305 3.05 3.491.893 1.066 2.614 3.259 2.614 3.259M252.06 704.27s3.9 2.06 5.714 3.319a36.049 36.049 0 0 1 4.343 3.556c1.15 1.098 2.158 2.348 3.2 3.556.937 1.086 2.743 3.319 2.743 3.319M250.81 707.52s3.778 1.911 5.536 3.078a34.718 34.718 0 0 1 4.207 3.297c1.114 1.018 2.09 2.177 3.1 3.297.907 1.01 2.657 3.078 2.657 3.078M249.31 710.14s3.656 1.911 5.357 3.078a33.816 33.816 0 0 1 4.071 3.297c1.078 1.018 2.023 2.177 3 3.297.878 1.01 2.571 3.078 2.571 3.078M247.06 712.64s3.778 1.948 5.536 3.138a35.242 35.242 0 0 1 4.207 3.362c1.114 1.038 2.09 2.22 3.1 3.362.907 1.027 2.657 3.138 2.657 3.138M244.69 715.58s3.96 1.873 5.804 3.02a36.407 36.407 0 0 1 4.411 3.233c1.168.998 2.191 2.134 3.25 3.233.951.987 2.786 3.02 2.786 3.02M243.44 718.33s3.778 1.911 5.536 3.078a34.718 34.718 0 0 1 4.207 3.297c1.114 1.018 2.09 2.177 3.1 3.297.907 1.01 2.657 3.078 2.657 3.078M241.94 720.83s3.778 1.911 5.536 3.078a34.718 34.718 0 0 1 4.207 3.297c1.114 1.018 2.09 2.177 3.1 3.297.907 1.01 2.657 3.078 2.657 3.078M239.19 723.46s4.082 1.911 5.982 3.078a37.243 37.243 0 0 1 4.546 3.297c1.204 1.018 2.259 2.177 3.35 3.297.981 1.01 2.871 3.078 2.871 3.078M237.94 726.46s3.96 1.948 5.804 3.138a36.977 36.977 0 0 1 4.411 3.362c1.168 1.038 2.191 2.22 3.25 3.362.951 1.027 2.786 3.138 2.786 3.138M235.31 728.77s3.96 1.985 5.804 3.198a36.563 36.563 0 0 1 4.411 3.427c1.168 1.058 2.191 2.262 3.25 3.427.951 1.047 2.786 3.198 2.786 3.198M232.81 731.52s4.143 2.06 6.071 3.319a37.847 37.847 0 0 1 4.614 3.556c1.222 1.098 2.293 2.348 3.4 3.556.995 1.086 2.914 3.319 2.914 3.319M215.06 754.27s3.778 1.911 5.536 3.078a34.718 34.718 0 0 1 4.207 3.297c1.114 1.018 2.09 2.177 3.1 3.297.907 1.01 2.657 3.078 2.657 3.078M230.56 734.89s3.96 1.948 5.804 3.138a36.977 36.977 0 0 1 4.411 3.362c1.168 1.038 2.191 2.22 3.25 3.362.951 1.027 2.786 3.138 2.786 3.138M228.81 737.89s4.02 1.985 5.893 3.198a36.88 36.88 0 0 1 4.479 3.427c1.186 1.058 2.225 2.262 3.3 3.427.966 1.047 2.829 3.198 2.829 3.198M226.19 740.58s3.96 1.873 5.804 3.02a36.407 36.407 0 0 1 4.411 3.233c1.168.998 2.191 2.134 3.25 3.233.951.987 2.786 3.02 2.786 3.02M224.19 743.58s3.9 1.985 5.714 3.198a35.866 35.866 0 0 1 4.343 3.427c1.15 1.058 2.158 2.262 3.2 3.427.937 1.047 2.743 3.198 2.743 3.198M221.94 746.58s3.717 1.873 5.446 3.02a34.142 34.142 0 0 1 4.139 3.233c1.096.998 2.057 2.134 3.05 3.233.893.987 2.614 3.02 2.614 3.02M219.69 749.46s3.839 1.836 5.625 2.957a34.68 34.68 0 0 1 4.275 3.168c1.132.978 2.124 2.091 3.15 3.168.922.968 2.7 2.957 2.7 2.957M217.69 751.96s3.656 1.873 5.357 3.02a33.683 33.683 0 0 1 4.071 3.233c1.078.998 2.023 2.134 3 3.233.878.987 2.571 3.02 2.571 3.02M202.94 767.08s2.498 1.124 3.661 1.81c1.891 1.071 3.407 2.47 4.832 3.879.6.592 1.757 1.81 1.757 1.81M213.31 756.64s3.595 1.948 5.268 3.138a33.585 33.585 0 0 1 4 3.362c1.06 1.038 1.989 2.22 2.95 3.362.863 1.027 2.529 3.138 2.529 3.138M209.81 759.39s3.9 1.873 5.714 3.02a35.668 35.668 0 0 1 4.343 3.233c1.15.998 2.158 2.134 3.2 3.233.937.987 2.743 3.02 2.743 3.02M207.56 762.27s3.839 1.836 5.625 2.957a34.68 34.68 0 0 1 4.275 3.168c1.132.978 2.124 2.091 3.15 3.168.922.968 2.7 2.957 2.7 2.957M205.56 764.77s3.168 1.461 4.643 2.353a28.89 28.89 0 0 1 3.529 2.522c.934.779 1.753 1.665 2.6 2.522.761.77 2.229 2.353 2.229 2.353M195.25 772.73c1.5.354 2.625 1.083 3.188 1.625M200.25 769.11s2.582 1.198 3.75 2c1.363.937 3.75 3.25 3.75 3.25M197.62 770.92c2.229.75 3.896 2.125 5.313 3.438"/></g><path d="M307.84 670.48c2.487 2.132 4.58 3.834 4.4 8.662.497 5.917 1.76 11.722 2.658 17.582.359 3.843.806 7.723.221 11.566-.28 3.037-.257 6.15.704 9.07.248 3.618-3.146 5.996-5.398 8.307-2.6 1.892-5.886 1.552-8.842 2.192-1.968.978-2.655-.843-2.385-2.416-.148-7.193-.797-15.636-.945-22.829-3.442-2.185-5.175-3.093-8.729-3.269-3.504-.097-4.997 1.209-4.958-3.421.304-3.521 3.411-5.54 6.809-4.18 2.469.724 2.108.25 4.379 1.62-3.403-.636-3.565-1.414-6.936-2.147-2.403.637-4.264.803-4.482-2.703-1.377-3.483.591-4.973 3.071-6.157 3.146-.144 2.268.799 5.489.413 1.089.056 3.537 1.68 4.919 2.233-3.113-.392-5.63-2.929-8.812-2.64-2.064-.899-4.217 3.894-6.05-2.093-.196-3.095 2.91-4.767 4.888-6.587 1.635-1.3 3.97-.393 5.801.044 1.902.76 3.975 1.308 5.91 1.833-3.614-.09-6.78-2.378-10.437-2.13-3.476.402-4.593 5.494-6.613 2.131-1.376-3.345 1.02-6.555 3.188-8.898 2.02-.669 2.86-1.634 5.976-1.913 1.972.583 4.1 1.483 6.04 2.186 3.075.042 7.152 3.02 10.133 3.539z" style="fill:#faa"/><g style="fill:none"><path d="M308.5 679.98s.288 1.078.25 1.625c-.06.868-.75 2.5-.75 2.5M307.12 690.61s-.021.845-.125 1.25c-.158.615-.75 1.75-.75 1.75M304.25 698.86s-.694 2.371-1.5 3.25c-.454.495-1.089.882-1.75 1-.499.089-1.5-.25-1.5-.25"/></g></g><path d="M291.5 781.86h8.75l.061-78.53c-3.02-3-5.915-3.221-9.06-3.707z" style="fill:#fa5"/><path d="M200.04 577.99c.642 1.888 1.551 3.588 2.028 5.475.887 3.509.534 7.27 1.521 10.752.86 3.03 2.492 5.788 3.787 8.661 1.196 2.653 2.767 5.153 3.68 7.917a21.626 21.626 0 0 1 1.01 4.899c.352 4.123-.216 8.273-.404 12.407-.076 1.68-.62 3.386-.293 5.04.381 1.919 1.186 3.885 2.552 5.286 1.089 1.118 3.211.906 4.16 2.145 2.041 2.663.514 6.897 2.128 9.839 1.51 2.752 4.208 4.707 6.692 6.627 2.259 1.747 4.564 3.832 7.368 4.373 1.996.385 4-1.148 6.03-.937 2.251.235 4.085 2.423 6.347 2.407 1.842-.013 3.569-1.068 5.138-2.034 2.057-1.266 4.153-2.753 5.416-4.812.623-1.015.829-2.267.906-3.455.134-2.065-.03-4.232-.783-6.159a7.647 7.647 0 0 0-2.145-3.01c-1.164-.991-2.957-1.027-4.113-2.027-.703-.608-1.228-1.438-1.58-2.299-.543-1.331-.209-2.912-.741-4.247-1.193-2.996-3.219-5.638-5.342-8.06-1.518-1.735-4.02-2.573-5.21-4.549-1.118-1.861-1.01-4.223-1.477-6.344-.443-2.01-.684-4.074-1.255-6.05-.919-3.191-1.69-6.538-3.478-9.337-1.8-2.818-4.962-4.523-7.06-7.13-2.746-3.419-2.847-10.134-7.135-11.05-1.155-.247.322 2.898-2.972 1.928-4.217-1.241-6.852-3.182-10.349-4.604-1.457-.592-3.672-1.412-4.426-1.634z" style="fill:#a50"/><g style="fill:none;stroke-linecap:round;stroke-linejoin:round"><path d="M204.7 580.12c.918 2.443 1.627 4.941 2.351 7.439.574 1.981.881 4.04 1.578 5.981 1.131 3.148 3.072 5.964 4.203 9.112.905 2.521 1.434 5.163 2.046 7.771.555 2.363 1.254 4.714 1.475 7.131.282 3.086-.437 6.206-.201 9.296.144 1.875.21 3.84.979 5.556 1.327 2.959 4.925 4.585 6.03 7.634.664 1.832-.31 3.952.158 5.844.411 1.664 1.045 3.416 2.271 4.614 1.548 1.514 3.876 1.947 5.892 2.738 2.845 1.117 5.789 1.97 8.722 2.826 1.575.46 3.142.994 4.765 1.241 1.568.239 3.283.823 4.752.226 2.052-.834 4.05-2.697 4.535-4.858.368-1.644-.679-3.367-1.544-4.813-.623-1.042-1.363-2.284-2.529-2.619-1.392-.401-3.036.208-4.22 1.044-.864.611-1.5 1.621-1.749 2.65-.252 1.046-.422 2.464.354 3.209.705.676 2.065.667 2.923.201.758-.412.838-1.508 1.257-2.263"/><path d="M207.29 580.77c1.448 2.512 3.154 4.887 4.46 7.479 1.686 3.344 3.097 6.831 4.333 10.366.945 2.703 1.626 5.492 2.349 8.262.786 3.01 1.796 5.997 2.16 9.09.45 3.824-.975 7.829.013 11.551.269 1.012.963 1.864 1.555 2.728 1.749 2.554 4.786 4.302 5.859 7.206.637 1.725-.339 3.739.14 5.515.506 1.877 1.028 3.984 2.805 5.115 2.02 1.284 5.162 3.477 7.845 2.944 2.683-.532 4.906-3.789 6.498-3.506"/><path d="M213.45 584.01c2.205 3.753 3.862 7.81 5.484 11.849 1.949 4.852 3.913 9.744 5.091 14.839.979 4.231.537 8.721 1.613 12.928.628 2.456 1.688 4.792 2.797 7.07 1.017 2.091 2.475 3.945 3.518 6.02 1.314 2.618.832 6.746 3.435 8.089 2.57 1.326 5.682-1.108 8.474-1.862 1.248-.337 2.711-.346 3.691-1.187.764-.655.9-1.8 1.35-2.7"/><path d="M217.33 584.01c1.429 3.099 3.43 5.901 4.789 9.02 1.131 2.597 1.873 5.347 2.78 8.03 1.311 3.878 2.946 7.669 3.85 11.661.898 3.965.346 8.211 1.537 12.1 1.02 3.326 3.093 6.234 4.715 9.313.989 1.878 1.222 4.522 3.059 5.587 1.722.998 4.197.791 5.969-.115.892-.457 1.594-1.426 1.805-2.406.261-1.212.158-2.853-.808-3.631-.661-.532-1.952-.617-2.545-.011-.514.526-.195 1.514.058 2.205.001.028.057.071.057.071"/><path d="M226.73 595.67c.981 2.087 2.298 4.03 3.08 6.208 1.789 4.975 2.344 10.311 3.615 15.443.793 3.201.752 6.776 2.502 9.57a5.607 5.607 0 0 0 2.5 2.14c1.983.843 4.316.229 6.435.617.442.081.868.237 1.302.355"/></g><g style="fill:#55a"><path d="m318.37 746.49-.25 5.625-.25 4-1 3.5-1 3.75-.875 2.125.375 2.75-.25 4.25-.375 2.375-1.125 3-1 2.875-.75 1.25-42.875-.25-.875-1.5-1.375-3.75-1.125-2.25-1.125-3.375-.75-5.25-.5-5 .125-3-.625-2.375-.5-3.75-1.125-4-1.5-2.375-.5-2.75-.625-2.75-.625.375-1.375 4.375-1.75 4.125-.75 3-1.25 4.125-.875 2.25-.5 3.125.125 3.625-.375 1.375-.125 1.75-.5.75-2.875 1.875-3.125 1.5-4.375.875-4.75 1.125-4.125.375-4.75.5-2.875-.25 12.375-13.5 8.875-9.375 6.125-8 6.75-9.125 8.375-13.75 3.25-5.875 11.75-19.875 3.375-4.75 6.75-.25.375 36-1 .375-3.75 4.75-1.25 2.125-5.25 8.875-1.375 2.75-1.125 1.75 3.625 4.625 5 3.375 3.5 1.5 5.75-.375 4.875-1h3.75l5.375-2.5 4-2.25z" style="stroke-linecap:round;stroke-linejoin:round" transform="rotate(180 180 782.235)"/><path d="m152 890.61 2.25-38.5s-12.03 17.705-17.75 26.75c-5.354 8.468-15.5 25.75-15.5 25.75l15.5 6zM262 888.36c-4.795 2.727-9.879 4.803-14.936 6.971-7.281 3.01-13.874 8.777-21.479 11.01-6.695 2.423-13.39 3.596-20.09 6.02.019-10.318-.397-20.652-.099-30.961l4.098-53.04 5-4.5c4.597 2.906 9.618-4.187 12.12-2.092 11.795 22.2 23.59 44.39 35.38 66.59z"/></g><path d="m153.75 168.5-2 15-1 18.25-1 16.25 1.75 43.5 51.75-22.25L206.5 194l1-18.25.75-13.25L195 149.25l-25.5-.5-10.75 7.75z" style="fill:#a00" transform="rotate(180 180 526.055)"/><path d="M175.5 156.25 173.75 167l-1 13.75-.75 16.5-.25 10.75-.75 12 11-3.25-.25-15.75 1-22 1.5-15 .75-8.25-5.25.75z" style="fill:#fa5" transform="rotate(180 180 526.055)"/><path d="m180 156.75-1.25 8.5-1.25 11-.5 15.25-.5 11.5v8.75l-.25 6.75" style="fill:none" transform="rotate(180 180 526.055)"/><g style="fill:#fa5"><g style="stroke-linecap:round;stroke-linejoin:round"><path d="M194.25 865.61a3.875 4 0 1 1 7.75 0 3.875 4 0 1 1-7.75 0zM193.625 881.86a3.875 4 0 1 1 7.75 0 3.875 4 0 1 1-7.75 0zM194.875 848.61a3.875 4 0 1 1 7.75 0 3.875 4 0 1 1-7.75 0zM160.875 880.86a3.875 4 0 1 1 7.75 0 3.875 4 0 1 1-7.75 0zM162.125 865.36a3.875 4 0 1 1 7.75 0 3.875 4 0 1 1-7.75 0zM162.375 848.86a3.875 4 0 1 1 7.75 0 3.875 4 0 1 1-7.75 0z"/></g><path d="M230 789.61h-14.5c-2.056.882-4.199 1.585-6.099 2.79-1.611.919-3.266 1.796-4.787 2.846-.813.753-1.473 1.718-2.562 2.088l-2.551 1.276c.146.451-.32 1.513.289 1.5 1.594.119 3.147-.249 4.711-.5 1.356.115 2.749.112 4.083.3 1.276.82 2.668 1.492 3.872 2.405 1.12 1.163 2.335 2.25 3.397 3.46.623 1.065 1.353 2.093 1.91 3.182.17 2.045.636 4.081.398 6.137-.103 1.058-.019 2.162-.239 3.192-.461.884-.745 1.899-1.315 2.701l-1.855 1.623v1.75c.862.215 1.732.605 2.59.715 1.683-.649 3.399-1.225 4.943-2.175 1.306-.82 2.781-1.26 4.217-1.79l3.5-31.5z"/></g><path d="M152.91 655.32a14.29 14.29 0 0 0-1.775 11.378c.87 4.154 3.175 8.173 2.328 12.533-.006 3.19 2.666.992 2.939-.815 3.01-4.224 7.691-7.06 12.526-8.731 3.788-.777 7.715-1.585 11.556-.654 3.881.216 7.816-1.465 11.658-.095 3.52 1.089 4.858 5.06 7.966 6.89 2.336.811 1.775 4.785 3.778 4.685 1.838-.092 2.756-5.633 5.379-7.548 2.757-3.867 6.929-6.534 9.176-10.781 1.854-3.177 5.05-5.662 5.417-9.56 1.376-4.762 2.821-10.324-.248-14.777-2.272-4.06-7.215-4.739-11.286-5.869-17.09-3.735-35.654-.463-50.46 8.845-2.862 1.823-6.06 3.841-6.857 7.402-.767 2.345-1.121 4.818-2.094 7.096z" style="fill:#fff" transform="rotate(180 180 782.235)"/><g style="stroke-linecap:round;stroke-linejoin:round"><path d="M30.75 687.77c7.725-3.934 9.3-12.13 9.689-18.482 6.103 1.594 13.632 2.128 20.07 2 9.609-.579 20.1-4.75 28.06-9.887 3.789 4.907 6.766 10.915 12.328 18.755 10.04 14.887 21.2 29.09 29.518 45.04 3.174 10.938 3.643 16.13 3.63 23.968.055 12.304-1.388 21.574-5.764 29.922-2.452 2.672-3.313 3.146-8.325 3.02h-51.2c-7.124-4-14.4-7.759-20.03-13.841-6.924-7.312-10.941-12.846-18.218-20.16.167-20 .083-40.34.25-60.34z" style="fill:#fa5" transform="rotate(180 180 782.235)"/><path d="M30.406 714.01c2.269-.809 4.793-1.154 6.902-2.256 3.189-2.777 6.473-5.536 9.179-8.785 1.876-2.591 3.969-5.057 4.982-8.145.579-1.368 1.142-3.452 3.049-3.088 3.846.021 7.701.152 11.482-.679 4.921-.954 9.894-2.112 14.449-4.234 1.91-1.17 2.29-1.237 3.493.889 4.096 6.73 8.334 12.333 13.08 18.619 4.944 7.03 7.611 11.09 10.562 16.835 1.763 3.081 3.03 5.771 4.04 9.181 1.265 4.02 2.077 8.189 2.276 12.404.56 7.607-.672 15.21-2.175 22.646-3.675 1.137-7.58.918-11.374 1.213-4.794-.59-9.663-.799-14.412-1.6-5.289-1.609-10.731-3.148-15.313-6.348-2.792-1.898-6.13-3-8.355-5.648-3.37-3.497-6.65-7.114-9.748-10.854-5.317-6.972-8.263-9.439-13.865-16.182-1.497-1.866-5.531-6.192-8.156-8.868l-.094-5.101z" style="fill:#aaa" transform="rotate(180 180 782.235)"/><g style="fill:none"><path d="m329.75 854.11-4.25 1.25-4.25 2.75-5 5.25-3.5 5-2 5.75-.75 2-1.25.5-5.5-.75-7.25.5-8.25 1.5-5 1.75-3.5 1.5c-1.665.573-1.841 1.025-3.25 1.25l-7-10.5s-9.216-13.13-13.75-19.75c-2.443-3.565-5.33-6.878-7.25-10.75-2.072-4.179-3.532-8.687-4.5-13.25-.955-4.502-1.346-9.149-1.25-13.75.053-2.522.614-5.01 1-7.5.44-2.843 1.5-8.5 1.5-8.5l1.5-4.5 7-1 8.25.25 8 1 8 1.25 8.5 3 8 4.25 6.25 4 4 4.5 20.25 23.5 5.25 6.5Z"/><path d="M329.75 872.61c-2.797 1.029-6.277 1.543-7.714 4.496-2.72 3.526-5.03 7.51-5.536 12-1.89 1.055-4.132-.427-6.204-.32-4.676-.68-9.507-.766-14.08.543-5.331 1.033-10.746 1.972-15.592 4.564-2.461 1.089-7.87 3.964-7.87 3.964s-.464-.619-4.71-6.723c-10.253-15.187-19.49-28.1-29.593-43.38-2.759-4.466-5.554-9-6.8-14.155-2.42-8.695-1.809-17.809-2.147-26.74 1.645-7.533 2.301-15.621 6.557-22.243.902-1.934 2.379-2.717 4.478-2.257h42.22c6.158 2.987 12.709 5.41 18.226 9.461 6.163 4.525 11.5 10.16 16.178 16.257 4.136 4.722 8.139 9.61 12.846 13.782l-.25 50.75z"/></g><g style="fill:#fa5"><path d="M308.75 881.86a3.25 3.25 0 1 1 6.5 0 3.25 3.25 0 1 1-6.5 0zM290.25 884.11a3.25 3.25 0 1 1 6.5 0 3.25 3.25 0 1 1-6.5 0zM272.25 889.11a3.25 3.25 0 1 1 6.5 0 3.25 3.25 0 1 1-6.5 0zM261 875.86a3.25 3.25 0 1 1 6.5 0 3.25 3.25 0 1 1-6.5 0zM248.25 857.11a3.25 3.25 0 1 1 6.5 0 3.25 3.25 0 1 1-6.5 0zM236.75 837.61a3.25 3.25 0 1 1 6.5 0 3.25 3.25 0 1 1-6.5 0zM232.75 815.11a3.25 3.25 0 1 1 6.5 0 3.25 3.25 0 1 1-6.5 0zM239.25 788.86a3.25 3.25 0 1 1 6.5 0 3.25 3.25 0 1 1-6.5 0zM260 787.36a3.25 3.25 0 1 1 6.5 0 3.25 3.25 0 1 1-6.5 0zM279.75 789.61a3.25 3.25 0 1 1 6.5 0 3.25 3.25 0 1 1-6.5 0zM298.25 800.36a3.25 3.25 0 1 1 6.5 0 3.25 3.25 0 1 1-6.5 0zM314 816.86a3.25 3.25 0 1 1 6.5 0 3.25 3.25 0 1 1-6.5 0zM323.25 864.61a3.25 3.25 0 1 1 6.5 0 3.25 3.25 0 1 1-6.5 0z"/></g></g><path d="M148.08 738.92c3.896-2.988 5.875-5.235 11.427-8.585 2.871-1.733 3.638-3.544 7.491-4.481 3.853-.937 10.564-1.081 14.28-1.644 4.415-.669 5.508-.268 10.08.107 1.661-.023 8.246-1.107 6.786.313-3.233 4.818-9.163 11.611-14.01 17.198-4.35 5.02-7.979 10.966-13.506 14.65-2.131 1.421-4.978 1.392-7.218 2.634-1.338.741-2.256 2.126-3.619 2.821-2.872 1.465-6.135 3.333-9.293 2.682-2.957-.61-5.482-3.14-7-5.75-1.743-2.997-1.925-6.787-1.763-10.25.103-2.192.471-4.549 1.719-6.355 1.081-1.564 3.114-2.183 4.622-3.34z" style="fill:#faa;fill-opacity:.982" transform="rotate(180 180 782.235)"/><g style="fill:none;stroke-linecap:round;stroke-linejoin:round"><path d="M168.27 831.65s5.909 1.058 8.891 1.01c2.709-.047 8.04-1.194 8.04-1.194M176.21 822.82s4.165.729 6.268.704c1.64-.019 4.877-.664 4.877-.664M182.25 815.57s3.582.318 5.364.155c.789-.072 2.323-.498 2.323-.498M195.6 815.28c-.072.861-1.042 1.223-1.237 1.945M195.77 822.35c-.302.563-1.01.816-1.414 1.238M195.07 829.95c-.052.814-.898 1.235-1.591 1.414"/></g><path d="m144.6 775 7.601-3.889 6.187-3.889 5.834-5.127 5.834-5.303 10.43-10.607 9.02-11.49 8.485-10.96 9.02-12.728 12.728-19.799 12.02-18.562 6.364-12.02 4.596-7.955 10.783 6.541 8.132 5.303 6.01 5.303 2.298 1.061-4.419 9.192-11.314 20.683-12.374 19.445-17.15 22.627-10.43 12.198-10.607 10.43-10.96 9.546z" style="fill:#a00" transform="rotate(180 180 782.235)"/><g style="fill:none"><path d="M205.85 789.48c-13.811 7.172-23.308 19.882-33.17 31.518-19.886 23.47-36.25 49.831-51.723 76.43a424.35 424.35 0 0 0-6.716 12.488M93.32 895.5c13.454-32.796 34.462-60.63 57.58-86.38 6.079-6.771 14.521-14.44 22.401-19.636"/></g><path d="M152.93 577.27c-3.865 1.303-8.23-1.145-10.562-4.26-3.267-3.814-1.465-9.225.158-13.338 2.766-4.805 7.679-7.839 12.02-11.09 10.576-5.416 22.842-5.64 34.466-5.793 8.855.132 18.03.512 26.295 3.972 7.777 3.946 15.584 10.766 20.633 18.315 5.712 7.551 10.552 15.93 11.244 25.659.204 4.279-3.613 7.324-6.951 9.276-4.068 1.237-9.285 1.152-12.315-2.28-5.124-4.52-7.526-11.12-11.784-16.301-4.226-4.635-10.41-6.676-16.05-9-10.03-2.846-20.566-3.487-30.949-3.611-5.306.481-11.391.373-15.485 4.328-1.09 1.263.162 2.969-.717 4.123z" style="fill:#55a" transform="rotate(180 180 782.235)"/><g style="stroke-linecap:round;stroke-linejoin:round"><path d="M153.5 582.11c-2.943 2.403-4.21 7.409-7.219 10.392-2.053 4.641 1.341 10.265-1.506 14.615-1.823 3.628-.856 8.105-4.774 10.743-1.197 5.132-.256 9.712-3.03 14.557-2.33 1.82.869 7.146-4.39 4.769-7.08.562-2.72 11.268-8.27 13.445-3.12 3.64-.834 8.466 2.509 10.332 3.02 2.34 7.182-3.053 11.183-2.352 4.67-.896 9.304-1.773 13.37-4.288 3.621-2.638 7.399-2.498 9.719-5.386 2.699-3.36 3.106-7.285 3.681-12.395 2.503-13.358 4.76-27.35 1.415-40.763-1.597-6.297-5.989-12.339-12.685-13.668z" style="fill:#a50" transform="rotate(180 180 782.235)"/><g style="fill:none"><path d="M220.99 938.27c-.697-2.183.264-10 1.044-12.554.675-2.207.132-6.326 2.473-6.641 1.847-.248 5.855 1.848 4.139 4.04-1.194 1.525-3.57-.019-3.57-.019"/><path d="M207.1 968.69c2.726-7.509 3.497-15.488 5.231-23.24.628-2.805 1.5-5.567 1.873-8.418.705-5.389-.954-11.11.674-16.291.742-2.365 2.597-4.224 3.994-6.272 1.575-2.31 2.475-5.462 4.942-6.778 2.135-1.139 5.766-2.195 7.254-.287 1.366 1.752.337 6.215-1.878 6.396-1.351.11-4.445-2.294-1.763-3.666"/><path d="M233.85 915.26c-2.02 1.845-5.441 2.086-7.958.69-1.934-1.263-4.338.054-5.168 1.958-1.274 1.869-2.01 4.672-2.13 6.998-.661 2.503-.893 5.077-.896 8.92-1.114 3.53-.326 4.353-1.565 8.148-.526 5.01-1.804 8.317-3.145 11.54-1.789 3.92-1.588 8.278-1.873 12.472-.477 3.691-1.589 7.615-4.317 10.283"/></g></g><g style="fill:none"><path d="M207.1 952.61c1.872-4.111 2.564-8.615 3.278-13.04.748-4.634.332-9.404 1.04-14.04.699-4.58 1.265-9.306 3.154-13.537.961-2.153 2.5-4.03 4.057-5.796M207.1 939.56c.461-6.352.625-12.755 1.758-19.02.604-3.34 1.095-6.822 2.675-9.826.611-1.162 1.59-2.108 2.545-3.01"/><g style="stroke-linecap:round;stroke-linejoin:round"><path d="M208.01 910.44c-1.112 3.953-2.744 5.067-2.847 10.569-.045 2.4-2.315 4.556-1.324 7.079M200.12 922.27c1.745-2.272 1.33-2.969 1.947-4.473.676-1.648.719-3.339 1.923-4.986"/></g></g><path d="M154 577.61c-1.228 2.108-.833 4.816-1 7.25-.137 1.995-.105 4 0 6 .083 1.59.37 3.163.5 4.75.116 1.414.256 2.831.25 4.25-.001 2.506-.21 5.01-.5 7.5-.176 1.51-.625 2.984-.75 4.5-.213 2.575-.103 5.169 0 7.75.083 2.088.051 4.209.5 6.25.362 1.648 1.243 3.141 1.75 4.75.492 1.562.621 3.239 1.25 4.75.632 1.517 1.644 2.847 2.5 4.25.975 1.599 1.913 3.225 3 4.75.929 1.304 2.248 2.337 3 3.75.656 1.233.807 2.675 1.25 4 .393 1.175.72 2.38 1.25 3.5.623 1.318 1.464 2.522 2.25 3.75 1.196 1.869 2.242 3.872 3.75 5.5 1.088 1.174 2.328 2.266 3.75 3a9.473 9.473 0 0 0 3.5 1c1.586.138 3.196-.153 4.75-.5 1.98-.442 4.054-.886 5.75-2 2.367-1.553 3.79-4.207 5.75-6.25 1.795-1.871 3.713-3.621 5.5-5.5 1.627-1.71 3.24-3.436 4.75-5.25a72.746 72.746 0 0 0 3.25-4.25c1.397-1.956 2.988-3.82 4-6a38.22 38.22 0 0 0 3.25-11.25c.344-2.73.005-5.511-.25-8.25-.399-4.283-1.089-8.545-2-12.75-.659-3.043-1.614-6.02-2.5-9-.945-3.184-1.913-6.362-3-9.5-1.312-3.788-1.489-8.344-4.25-11.25-2-2.11-5.212-2.662-8-3.5-4.212-1.266-8.606-2.061-13-2.25-2.925-.126-5.827.588-8.75.75-3.329.184-6.702-.239-10 .25-2.48.367-5 .885-7.25 2-1.597.793-3.352 1.709-4.25 3.25z" style="fill:#faa" transform="rotate(180 180 782.235)"/><path d="M162.62 632.99c.327-1 1.467-1.285 2.222-1.877.556-.42.902-1.192 1.689-1.227.882-.113 1.95.019 2.475.826.532.49 1.583.418 1.591-.352.446-.371 1.586-.326 2.095-.297 1.415.298 2.07.923 3.329 1.631.521.264 1.315.472 1.35 1.17-.211.784-1.362.555-1.736 1.249-.825.978-1.311 1.137-2.203 2.066-.671.859-1.456 1.791-2.608 1.941-1.369.218-2.753-.102-4.08-.425-.869-.24-1.774-.735-2.059-1.654-.233-.792-.749-.372-1.189-1.053-.338-.58-.616-1.197-.88-1.81l-.009-.095.014-.095z" style="fill:#f55" transform="rotate(180 180 782.235)"/><path d="M154.36 578.16c2-.131 2.796-1.099 5.518-1.896 3.253-1.406 6.684-1.692 10.165-1.491 6.381.026 12.818-.382 19.15.547 6.571 1.425 13.239 2.934 19.277 5.985 2.042 1.203 3.995 2.565 5.997 3.806 2.33.368 3.203-3.56 1.501-4.866-2.305-2.426-5.651-3.377-8.474-5.04-9.06-4.287-19.1-6.143-29.06-6.663-7.06-.095-14.368-.377-21.11 2.081-2.297.794-4.481 2.794-5.121 5.385-.64 2.591.147 2.282 2.151 2.151z" style="fill:#fa5" transform="rotate(180 180 782.235)"/><g style="fill:none;stroke-linecap:round"><path d="M153 590.11c2.953.213 5.916.287 8.876.264 1.259.948 3.25 1.64 3.294 3.497.191 2.051.843 4.081.671 6.151-.328 1.926-1.083 3.747-1.478 5.66-.844 3.351-1.732 6.707-2.36 10.1-.722 2.682.21 3.881 1.98 4.68.855 1.04 1.283 2.763 2.806 2.991 2.078-.034 2.232-2.711 3.88-3.414 1.416-.406 2.885.333 3.795 1.407 1.616.305 2.206-1.71 1.992-2.975-.186-1.241-1.028-2.393-2.206-2.861" style="stroke-linejoin:round" transform="rotate(180 180 782.235)"/><path d="M161.75 969.86c1.399.798 2.866 1.523 4.11 2.556.726.728 1.355 1.693 2.45 1.876 1.638.367 3.315-.051 4.971.086 2.178.048 4.357-.006 6.533-.072 1.057-.109 2.123-.368 3.07-.854 1.015-.499.808-1.692.616-2.592"/><path d="M154 596.36s2.795-1 4.25-1 2.865.552 4.25 1c1.02.33 2.97 1.235 2.97 1.235" style="stroke-linejoin:round" transform="rotate(180 180 782.235)"/></g><path d="M154.12 599.99s3.492-1.643 5.375-1.875c.914-.112 1.885-.064 2.75.25 1.239.449 3.25 2.25 3.25 2.25l-1.25 3.25s-2.156.551-3.25.75c-1.241.225-2.49.55-3.75.5-1.192-.047-3.5-.75-3.5-.75z" style="fill:#fff" transform="rotate(180 180 782.235)"/><g style="stroke-linecap:round;stroke-linejoin:round"><path d="M179.25 597.86s1.919-1.213 3-1.5c1.452-.386 2.998-.208 4.5-.25.833-.023 1.682-.158 2.5 0 1.322.255 2.559.873 3.75 1.5 1.064.56 2 1.333 3 2l.75.5" style="fill:none" transform="rotate(180 180 782.235)"/><path d="M179.25 602.86c.621-.876 1.115-1.903 2-2.5.721-.487 1.639-.624 2.5-.75 1.814-.266 3.674-.16 5.5 0 1.433.125 2.812.704 4.25.75.754.024 1.923-.93 2.25-.25.613 1.275-1.906 2.103-3 3-.929.762-1.86 1.618-3 2-1.346.451-2.835.358-4.25.25-1.19-.091-2.396-.298-3.5-.75-1.01-.412-2.13-.767-2.75-1.75z" style="fill:#fff" transform="rotate(180 180 782.235)"/><g style="fill:#55a"><path d="M187.75 90a2.25 2 0 1 1-4.5 0 2.25 2 0 1 1 4.5 0z" style="stroke-width:.792" transform="matrix(-1.16369 0 0 -1.37165 390.11 1085.43)"/><path d="M199 962.985a2.5 2.625 0 1 1 5 0 2.5 2.625 0 1 1-5 0z"/></g><path d="M173.25 961.985a.625.875 0 1 1 1.25 0 .625.875 0 1 1-1.25 0zM201 962.735a.5.625 0 1 1 1 0 .5.625 0 1 1-1 0z"/></g><path d="M162.62 633.24c.943-.071 1.896-.076 2.822-.287.766-.213 1.039.719 1.714.833.998.26 2.069.418 3.089.203.656-.207 1.168-.7 1.794-.977.633-.432 1.422-.522 2.16-.358.827.054 1.594.438 2.422.46.172-.011.338-.07.5-.125" style="fill:#f55" transform="rotate(180 180 782.235)"/><path d="M167.5 626.36c-1.035.851-.753 2.441-1.641 3.426-.756 1.592-2.078 2.989-3.893 3.271-1.815.417-3.889.251-5.319-1.056-1.227-1.305-3.486-1.146-4.44-2.679.353-1.739 2.722-.091 3.788.258 1.605.941 3.01-1.054 3.583-2.346.402-1.899 2.285-1.816 3.778-1.994 1.206-.6 2.38-1.357 3.782-1.372a12.969 12.969 0 0 1 5.748.622c1.77.546 4.04-.627 5.427 1 1.087 1.372 2.079 2.853 3.371 4.04 1.834 1.15 4.183.67 6.145.142 1.145-.628 2.335-1.301 3.698-1.142 1.521-.145 3.621 1.37 2.859 2.972-1.698 1.247-1.857-2.01-3.51-1.083a24.997 24.997 0 0 0-5.393 2.596c-1.949.71-4.068.462-6.091.774-1.414.217-2.479-.841-3.263-1.865-1.158-1.224-2.921-1.546-4.205-2.613-1.317-.648-2.178-1.877-2.638-3.088-.565-.259-1.262-.189-1.786.133z" style="fill:#a50" transform="rotate(180 180 782.235)"/><g style="stroke-linecap:round;stroke-linejoin:round"><path d="M163.52 647.01c1.154 1.297 2.02 2.92 3.438 3.924 1.817 1.284 4.061 1.857 6.199 2.471.74.212 1.503.388 2.272.412 2.377.074 4.805-.157 7.084-.832 1.927-.57 3.635-1.721 5.407-2.67 1.902-1.019 3.874-1.952 5.602-3.245 2.527-1.891 4.651-4.271 6.864-6.521a36.032 36.032 0 0 0 2.024-2.201" style="fill:none" transform="rotate(180 180 782.235)"/><g style="fill:#aaf"><path d="m63.72 1021.93.707-6.718 2.475-12.374 1.768-6.364 1.414-5.303 2.121-4.243v-2.121l-6.01-.354.354-13.789 2.121-1.414v-2.828l1.768-1.061.354-1.414-2.828-.707v-19.799l-.25-44.634-9.942-5.846.5 49.937-1.021 20.57-1.661 1.186-.707 1.061.354 3.889 2.121 1.061.354 1.061.354 12.728-6.093-.621-.271 1.328 2.828 8.485 2.475 10.607 1.414 8.485 1.061 4.95.354 4.243z"/><path d="M87.76 1008.85c3.384-4.486 7.218-8.66 10.257-13.39 2.632-4.097 5.05-8.376 6.855-12.901 1.635-4.108 2.799-8.426 3.528-12.787a73.192 73.192 0 0 0 .927-14.925 66.446 66.446 0 0 0-1.875-13.191 62.493 62.493 0 0 0-4.073-11.484 85.67 85.67 0 0 0-8.318-14.12c-1.827-2.515-3.652-5.174-6.177-6.987-.968-.696-2.414-3.499-3.296-1.389-3.048 4.03-6.095 8.05-9.142 12.08 1.383 1.87 3.378 3.396 4.282 5.551.873 2.08 1.22 4.466.928 6.703-.327 2.506-1.282 5.079-2.934 6.991-1.731 2-4.264 3.346-6.8 4.104-2.87.858-5.996.155-8.979.34-2.562-.101-5.25.452-7.565-.932-1.626-.222-1.976-2.137-2.267-3.459-.599-1.296 1.13-3.729.207-4.049-1.792.175-4.05-.676-5.413.714-1.756.536-1.388 2.908-1.578 4.443-.14 2.655-2.095 4.698-3.319 6.946-1.12 1.899-2.568 3.546-4.04 5.175 1.625 1.312 3.577 2.348 4.253 4.463 1.401 1.945 1.762 4.247 2.064 6.568.235 1.818-.465 3.845.919 5.343.308 1.347 3.192 1.975 3.01.097.536-2.403.737-3.61 2.484-5.326 2.049.022 4.613.228 6.706-.229 4.721-.039 9.557-.676 14.15.396 2.232.521 4.434 1.471 6.249 2.87 1.595 1.229 2.963 2.852 3.836 4.667.749 1.557 1.146 3.345 1.074 5.071-.08 1.917-.723 3.837-1.658 5.512-1.287 2.305-2.901 4.576-5.259 5.922l10.96 21.21z"/></g></g><path d="M269 608.3s.455-2.788 1.333-3.667c.878-.878 2.424-1.333 3.667-1.333 1.242 0 2.788.455 3.667 1.333.878.878 1.333 2.424 1.333 3.667 0 1.242-.667 3-1.333 3.667-.667.667-1.333 1-2 1.667s-1 .667-1.667 1.333l-1.667 1.667c-.667.667-1.667 2-2.333 3.333-.667 1.333-1 3.333-1 3.333s-.333-2-1-3.333c-.667-1.333-1.667-2.667-2.333-3.333L264 614.967c-.667-.667-1-.667-1.667-1.333-.667-.667-1.333-1-2-1.667S259 609.543 259 608.3c0-1.242.455-2.788 1.333-3.667.878-.878 2.424-1.333 3.667-1.333 1.242 0 2.788.455 3.667 1.333.878.878 1.333 3.667 1.333 3.667z" style="fill:#f55" transform="rotate(180 180 782.235)"/><g style="fill:none"><path d="M293.8 580.01c.631-3.873 1.428-7.717 2.04-11.594.849-4.639.662-7.599 1.366-14.05.254-4.062.292-9.989.837-12.181.954 2.027 1.246 8.465 1.162 12.329.89 6.839.81 10.388 1.311 13.917.205 3.491 1.257 8.722 1.321 11.322" style="stroke-linecap:round;stroke-linejoin:round" transform="rotate(180 180 782.235)"/><path d="M66.55 971.02c-2.711-.118-8.999.652-8.632.021M69.03 966.07l-13.664.043"/></g><g style="stroke-linecap:round;stroke-linejoin:round"><path d="M316 717.61c.639-.78 1.13-2.853 2.046-1.204.846.741.438 2.181.248 3.176-.403 1.428-.647 3.192.411 4.386.822 1.316 1.816 2.729 2.01 4.266-.514 3.144.422 6.262.784 9.376.196 1.288.831 2.344 1.75 3.25-.076 1.192-.211 2.359-1.187 3.172-3.346 2.622-6.684 5.327-10.495 7.259-3.266 1.673-6.593 3.706-10.376 3.706-3.088.014-6.02 1.513-9.127.997-1.498-.078-3.057.072-4.324-.889-2.109-1.062-4.338-1.945-5.974-3.715-1.767-1.348-3.163-3.11-4.266-5.03 2.74-5.154 5.877-10.07 9-15 .685-1.66 1.491-3.273 2-5 1.366-.446 1.968.725 3.034 1.178 1.724.574 3.417 1.344 5.279 1.072 2.627-.126 5.352.409 7.843-.647 2.694-.613 5.112-1.942 7.594-3.103 1.246-1.969 2.738-3.877 3.75-5.938v-1.312z" style="fill:#fa5" transform="rotate(180 180 782.235)"/><g style="fill:none"><path d="M93.75 800.11c-.862 1.863-1.675 3.753-2.568 5.598-1.508 2.16-2.984 4.346-4.512 6.49L82 817.359c1.343-2.206 2.731-4.39 4.046-6.61.985-2.401 2-4.792 2.966-7.198.322-1.688.706-3.369.988-5.061v-7.131M45 798.61c1.34-2.186 2.696-4.364 4.03-6.556.849-1.804 1.663-3.624 2.575-5.397l.149-.298"/></g><path d="m56 774.86-.5 7h13z" style="fill:#55a" transform="rotate(180 180 782.235)"/><path d="m124.75 269.5 131-.25s.061-1.835 0-2.75c-.083-1.258-.313-2.503-.5-3.75-.15-1-.283-2.01-.5-3-.203-.928-.273-1.928-.75-2.75a2.834 2.834 0 0 0-1-1c-.523-.308-1.75-.5-1.75-.5s-3.95 3.09-6.25 4c-3.389 1.341-7.124 1.627-10.75 2-3.98.409-8 .182-12 .25-6.416.108-12.834.151-19.25.25-4.667.072-9.334.158-14 .25-7.667.152-15.332.478-23 .5-5.167.014-10.333-.166-15.5-.25-5.083-.083-10.169-.081-15.25-.25-1.668-.055-5-.25-5-.25s-1.182 3.361-2.25 4.75c-.865 1.125-3.25 2.75-3.25 2.75z" style="fill:#fa5" transform="rotate(180 180 526.055)"/></g><g style="fill:none"><path d="M230.42 787.35c-28.2-.318-56.41-.368-84.6.189-7.765.153-15.945-.209-23.282.868-6.06.89-9.453 1.629-16.569 5.66"/><path d="m129.58 264.58 2.298 4.773 2.828-4.419 3.182 4.596 3.01-4.419 2.652 4.066 2.828-3.889L149.03 269l3.359-3.889 2.828 4.419 3.182-4.419 2.652 4.243 3.01-4.066 3.01 4.243 3.01-4.066 2.828 3.889 3.182-4.419 2.475 3.889 3.182-3.712 2.652 4.066 3.182-3.889 2.298 3.889 3.182-4.066 2.828 4.419 3.01-4.419 2.828 3.889 3.359-3.889 2.652 4.066 2.828-4.243 2.652 3.889 3.01-4.066 3.182 4.419 2.828-4.419 2.828 4.243 3.182-4.773 3.182 4.95 2.475-5.127 3.01 5.127 2.828-5.834 2.652 5.303 2.475-6.364 3.182 6.364 1.768-8.485 5.303 8.485" style="stroke-linecap:round;stroke-linejoin:round" transform="rotate(180 180 526.055)"/></g><g style="stroke-linecap:round;stroke-linejoin:round"><path d="m192.16 262.05 32.09.198s6.659-7.507 10-11.25c4.323-4.843 8.971-9.411 13-14.5 5.611-7.087 10.686-14.6 15.5-22.25 3.876-6.159 7.07-12.723 10.75-19 2.517-4.29 5.344-8.397 7.75-12.75 1.713-3.099 5.302-6 4.75-9.5-1.094-6.927-14.75-15-14.75-15h-1.5s-9.566 20.329-15.25 30c-5.294 9.01-11.35 17.555-17.5 26-5.555 7.627-11.379 15.07-17.5 22.25-3.826 4.488-7.914 8.747-12 13-2.205 2.295-4.315 4.701-6.75 6.75-2.681 2.256-8.593 6.05-8.593 6.05z" style="fill:#fa5" transform="rotate(180 180 526.055)"/><g style="fill:none"><path d="M91.5 891.36s-4.265-2.173-6.25-3.5a39.202 39.202 0 0 1-4.75-3.75c-1.258-1.158-2.36-2.476-3.5-3.75-1.024-1.145-3-3.5-3-3.5M92.75 888.61s-4.265-2.173-6.25-3.5a39.202 39.202 0 0 1-4.75-3.75c-1.258-1.158-2.36-2.476-3.5-3.75-1.024-1.145-3-3.5-3-3.5M94 885.86s-4.02-1.985-5.893-3.198a36.88 36.88 0 0 1-4.479-3.427c-1.186-1.058-2.225-2.262-3.3-3.427-.966-1.047-2.829-3.198-2.829-3.198M95.75 882.73s-3.96-1.948-5.804-3.138a36.977 36.977 0 0 1-4.411-3.362c-1.168-1.038-2.191-2.22-3.25-3.362-.951-1.027-2.786-3.138-2.786-3.138M97.25 879.73s-4.02-1.985-5.893-3.198a36.88 36.88 0 0 1-4.479-3.427c-1.186-1.058-2.225-2.262-3.3-3.427-.966-1.047-2.829-3.198-2.829-3.198M98.63 876.55s-3.96-1.873-5.804-3.02a36.407 36.407 0 0 1-4.411-3.233c-1.168-.998-2.191-2.134-3.25-3.233-.951-.987-2.786-3.02-2.786-3.02M99.88 873.8s-3.778-1.836-5.536-2.957a34.113 34.113 0 0 1-4.207-3.168c-1.114-.978-2.09-2.091-3.1-3.168-.907-.968-2.657-2.957-2.657-2.957M101.13 871.05s-3.717-1.873-5.446-3.02a34.142 34.142 0 0 1-4.139-3.233c-1.096-.998-2.057-2.134-3.05-3.233-.893-.987-2.614-3.02-2.614-3.02M103.13 868.17s-3.839-1.836-5.625-2.957a34.68 34.68 0 0 1-4.275-3.168c-1.132-.978-2.124-2.091-3.15-3.168-.922-.968-2.7-2.957-2.7-2.957M104.13 865.17s-3.656-1.873-5.357-3.02a33.683 33.683 0 0 1-4.071-3.233c-1.078-.998-2.023-2.134-3-3.233-.878-.987-2.571-3.02-2.571-3.02M105.94 862.7s-3.717-2.023-5.446-3.259a34.634 34.634 0 0 1-4.139-3.491c-1.096-1.078-2.057-2.305-3.05-3.491-.893-1.066-2.614-3.259-2.614-3.259M107.94 860.2s-3.9-2.06-5.714-3.319a36.049 36.049 0 0 1-4.343-3.556c-1.15-1.098-2.158-2.348-3.2-3.556-.937-1.086-2.743-3.319-2.743-3.319M109.19 856.95s-3.778-1.911-5.536-3.078a34.718 34.718 0 0 1-4.207-3.297c-1.114-1.018-2.09-2.177-3.1-3.297-.907-1.01-2.657-3.078-2.657-3.078M110.69 854.33s-3.656-1.911-5.357-3.078a33.816 33.816 0 0 1-4.071-3.297c-1.078-1.018-2.023-2.177-3-3.297a190.559 190.559 0 0 1-2.571-3.078M112.94 851.83s-3.778-1.948-5.536-3.138a35.242 35.242 0 0 1-4.207-3.362c-1.114-1.038-2.09-2.22-3.1-3.362-.907-1.027-2.657-3.138-2.657-3.138M115.31 848.89s-3.96-1.873-5.804-3.02a36.407 36.407 0 0 1-4.411-3.233c-1.168-.998-2.191-2.134-3.25-3.233-.951-.987-2.786-3.02-2.786-3.02M116.56 846.14s-3.778-1.911-5.536-3.078a34.718 34.718 0 0 1-4.207-3.297c-1.114-1.018-2.09-2.177-3.1-3.297-.907-1.01-2.657-3.078-2.657-3.078M118.06 843.64s-3.778-1.911-5.536-3.078a34.718 34.718 0 0 1-4.207-3.297c-1.114-1.018-2.09-2.177-3.1-3.297-.907-1.01-2.657-3.078-2.657-3.078M120.81 841.01s-4.082-1.911-5.982-3.078a37.243 37.243 0 0 1-4.546-3.297c-1.204-1.018-2.259-2.177-3.35-3.297-.981-1.01-2.871-3.078-2.871-3.078M122.06 838.01s-3.96-1.948-5.804-3.138a36.977 36.977 0 0 1-4.411-3.362c-1.168-1.038-2.191-2.22-3.25-3.362-.951-1.027-2.786-3.138-2.786-3.138M124.69 835.7s-3.96-1.985-5.804-3.198a36.563 36.563 0 0 1-4.411-3.427c-1.168-1.058-2.191-2.262-3.25-3.427-.951-1.047-2.786-3.198-2.786-3.198M127.19 832.95s-4.143-2.06-6.071-3.319a37.847 37.847 0 0 1-4.614-3.556c-1.222-1.098-2.293-2.348-3.4-3.556-.995-1.086-2.914-3.319-2.914-3.319M144.94 810.2s-3.778-1.911-5.536-3.078a34.718 34.718 0 0 1-4.207-3.297c-1.114-1.018-2.09-2.177-3.1-3.297-.907-1.01-2.657-3.078-2.657-3.078M129.44 829.58s-3.96-1.948-5.804-3.138a36.977 36.977 0 0 1-4.411-3.362c-1.168-1.038-2.191-2.22-3.25-3.362-.951-1.027-2.786-3.138-2.786-3.138M131.19 826.58s-4.02-1.985-5.893-3.198a36.88 36.88 0 0 1-4.479-3.427c-1.186-1.058-2.225-2.262-3.3-3.427-.966-1.047-2.829-3.198-2.829-3.198M133.81 823.89s-3.96-1.873-5.804-3.02a36.407 36.407 0 0 1-4.411-3.233c-1.168-.998-2.191-2.134-3.25-3.233-.951-.987-2.786-3.02-2.786-3.02M135.81 820.89s-3.9-1.985-5.714-3.198a35.866 35.866 0 0 1-4.343-3.427c-1.15-1.058-2.158-2.262-3.2-3.427-.937-1.047-2.743-3.198-2.743-3.198M138.06 817.89s-3.717-1.873-5.446-3.02a34.142 34.142 0 0 1-4.139-3.233c-1.096-.998-2.057-2.134-3.05-3.233-.893-.987-2.614-3.02-2.614-3.02M140.31 815.01s-3.839-1.836-5.625-2.957a34.68 34.68 0 0 1-4.275-3.168c-1.132-.978-2.124-2.091-3.15-3.168-.922-.968-2.7-2.957-2.7-2.957M142.31 812.51s-3.656-1.873-5.357-3.02a33.683 33.683 0 0 1-4.071-3.233c-1.078-.998-2.023-2.134-3-3.233-.878-.987-2.571-3.02-2.571-3.02M157.06 797.39s-2.498-1.124-3.661-1.81c-1.891-1.071-3.407-2.47-4.832-3.879-.6-.592-1.757-1.81-1.757-1.81M146.69 807.83s-3.595-1.948-5.268-3.138a33.585 33.585 0 0 1-4-3.362c-1.06-1.038-1.989-2.22-2.95-3.362-.863-1.027-2.529-3.138-2.529-3.138M150.19 805.08s-3.9-1.873-5.714-3.02a35.668 35.668 0 0 1-4.343-3.233c-1.15-.998-2.158-2.134-3.2-3.233-.937-.987-2.743-3.02-2.743-3.02M152.44 802.2s-3.839-1.836-5.625-2.957a34.68 34.68 0 0 1-4.275-3.168c-1.132-.978-2.124-2.091-3.15-3.168-.922-.968-2.7-2.957-2.7-2.957M154.44 799.7s-3.168-1.461-4.643-2.353a28.89 28.89 0 0 1-3.529-2.522c-.934-.779-1.753-1.665-2.6-2.522-.761-.77-2.229-2.353-2.229-2.353M164.75 791.74c-1.5-.354-2.625-1.083-3.188-1.625M159.75 795.36s-2.582-1.198-3.75-2c-1.363-.937-3.75-3.25-3.75-3.25M162.38 793.55c-2.229-.75-3.896-2.125-5.313-3.438"/></g><path d="M307.84 670.48c2.487 2.132 4.58 3.834 4.4 8.662.497 5.917 1.76 11.722 2.658 17.582.359 3.843.806 7.723.221 11.566-.28 3.037-.257 6.15.704 9.07.248 3.618-3.146 5.996-5.398 8.307-2.6 1.892-5.886 1.552-8.842 2.192-1.968.978-2.655-.843-2.385-2.416-.148-7.193-.797-15.636-.945-22.829-3.442-2.185-5.175-3.093-8.729-3.269-3.504-.097-4.997 1.209-4.958-3.421.304-3.521 3.411-5.54 6.809-4.18 2.469.724 2.108.25 4.379 1.62-3.403-.636-3.565-1.414-6.936-2.147-2.403.637-4.264.803-4.482-2.703-1.377-3.483.591-4.973 3.071-6.157 3.146-.144 2.268.799 5.489.413 1.089.056 3.537 1.68 4.919 2.233-3.113-.392-5.63-2.929-8.812-2.64-2.064-.899-4.217 3.894-6.05-2.093-.196-3.095 2.91-4.767 4.888-6.587 1.635-1.3 3.97-.393 5.801.044 1.902.76 3.975 1.308 5.91 1.833-3.614-.09-6.78-2.378-10.437-2.13-3.476.402-4.593 5.494-6.613 2.131-1.376-3.345 1.02-6.555 3.188-8.898 2.02-.669 2.86-1.634 5.976-1.913 1.972.583 4.1 1.483 6.04 2.186 3.075.042 7.152 3.02 10.133 3.539z" style="fill:#faa" transform="rotate(180 180 782.235)"/><g style="fill:none"><path d="M51.5 884.49s-.288-1.078-.25-1.625c.06-.868.75-2.5.75-2.5M52.88 873.86s.021-.845.125-1.25c.158-.615.75-1.75.75-1.75M55.75 865.61s.694-2.371 1.5-3.25c.454-.495 1.089-.882 1.75-1 .499-.089 1.5.25 1.5.25"/></g></g><path d="M291.5 781.86h8.75l.061-78.53c-3.02-3-5.915-3.221-9.06-3.707z" style="fill:#fa5" transform="rotate(180 180 782.235)"/><path d="M200.04 577.99c.642 1.888 1.551 3.588 2.028 5.475.887 3.509.534 7.27 1.521 10.752.86 3.03 2.492 5.788 3.787 8.661 1.196 2.653 2.767 5.153 3.68 7.917a21.626 21.626 0 0 1 1.01 4.899c.352 4.123-.216 8.273-.404 12.407-.076 1.68-.62 3.386-.293 5.04.381 1.919 1.186 3.885 2.552 5.286 1.089 1.118 3.211.906 4.16 2.145 2.041 2.663.514 6.897 2.128 9.839 1.51 2.752 4.208 4.707 6.692 6.627 2.259 1.747 4.564 3.832 7.368 4.373 1.996.385 4-1.148 6.03-.937 2.251.235 4.085 2.423 6.347 2.407 1.842-.013 3.569-1.068 5.138-2.034 2.057-1.266 4.153-2.753 5.416-4.812.623-1.015.829-2.267.906-3.455.134-2.065-.03-4.232-.783-6.159a7.647 7.647 0 0 0-2.145-3.01c-1.164-.991-2.957-1.027-4.113-2.027-.703-.608-1.228-1.438-1.58-2.299-.543-1.331-.209-2.912-.741-4.247-1.193-2.996-3.219-5.638-5.342-8.06-1.518-1.735-4.02-2.573-5.21-4.549-1.118-1.861-1.01-4.223-1.477-6.344-.443-2.01-.684-4.074-1.255-6.05-.919-3.191-1.69-6.538-3.478-9.337-1.8-2.818-4.962-4.523-7.06-7.13-2.746-3.419-2.847-10.134-7.135-11.05-1.155-.247.322 2.898-2.972 1.928-4.217-1.241-6.852-3.182-10.349-4.604-1.457-.592-3.672-1.412-4.426-1.634z" style="fill:#a50" transform="rotate(180 180 782.235)"/><g style="fill:none;stroke-linecap:round;stroke-linejoin:round"><path d="M155.3 984.35c-.918-2.443-1.627-4.941-2.351-7.439-.574-1.981-.881-4.04-1.578-5.981-1.131-3.148-3.072-5.964-4.203-9.112-.905-2.521-1.434-5.163-2.046-7.771-.555-2.363-1.254-4.714-1.475-7.131-.282-3.086.437-6.206.201-9.296-.144-1.875-.21-3.84-.979-5.556-1.327-2.959-4.925-4.585-6.03-7.634-.664-1.832.31-3.952-.158-5.844-.411-1.664-1.045-3.416-2.271-4.614-1.548-1.514-3.876-1.947-5.892-2.738-2.845-1.117-5.789-1.97-8.722-2.826-1.575-.46-3.142-.994-4.765-1.241-1.568-.239-3.283-.823-4.752-.226-2.052.834-4.05 2.697-4.535 4.858-.368 1.644.679 3.367 1.544 4.813.623 1.042 1.363 2.284 2.529 2.619 1.392.401 3.036-.208 4.22-1.044.864-.611 1.5-1.621 1.749-2.65.252-1.046.422-2.464-.354-3.209-.705-.676-2.065-.667-2.923-.201-.758.412-.838 1.508-1.257 2.263"/><path d="M152.71 983.7c-1.448-2.512-3.154-4.887-4.46-7.479-1.686-3.344-3.097-6.831-4.333-10.366-.945-2.703-1.626-5.492-2.349-8.262-.786-3.01-1.796-5.997-2.16-9.09-.45-3.824.975-7.829-.013-11.551-.269-1.012-.963-1.864-1.555-2.728-1.749-2.554-4.786-4.302-5.859-7.206-.637-1.725.339-3.739-.14-5.515-.506-1.877-1.028-3.984-2.805-5.115-2.02-1.284-5.162-3.477-7.845-2.944-2.683.532-4.906 3.789-6.498 3.506"/><path d="M146.55 980.46c-2.205-3.753-3.862-7.81-5.484-11.849-1.949-4.852-3.913-9.744-5.091-14.839-.979-4.231-.537-8.721-1.613-12.928-.628-2.456-1.688-4.792-2.797-7.07-1.017-2.091-2.475-3.945-3.518-6.02-1.314-2.618-.832-6.746-3.435-8.089-2.57-1.326-5.682 1.108-8.474 1.862-1.248.337-2.711.346-3.691 1.187-.764.655-.9 1.8-1.35 2.7"/><path d="M142.67 980.46c-1.429-3.099-3.43-5.901-4.789-9.02-1.131-2.597-1.873-5.347-2.78-8.03-1.311-3.878-2.946-7.669-3.85-11.661-.898-3.965-.346-8.211-1.537-12.1-1.02-3.326-3.093-6.234-4.715-9.313-.989-1.878-1.222-4.522-3.059-5.587-1.722-.998-4.197-.791-5.969.115-.892.457-1.594 1.426-1.805 2.406-.261 1.212-.158 2.853.808 3.631.661.532 1.952.617 2.545.011.514-.526.195-1.514-.058-2.205-.001-.028-.057-.071-.057-.071"/><path d="M133.27 968.8c-.981-2.087-2.298-4.03-3.08-6.208-1.789-4.975-2.344-10.311-3.615-15.443-.793-3.201-.752-6.776-2.502-9.57a5.607 5.607 0 0 0-2.5-2.14c-1.983-.843-4.316-.229-6.435-.617-.442-.081-.868-.237-1.302-.355"/></g></g></g></svg>