<svg xmlns="http://www.w3.org/2000/svg" width="210mm" height="297mm" viewBox="0 0 210 297"><g transform="translate(48.214 -71.876) scale(.26458)"><rect width="359" height="539" x=".5" y="512.86" fill="#fff" stroke="#000" rx="29.944"/><g fill="#f55"><path d="M180 562.36s8 13.333 17.333 22.667C206.666 594.36 220 602.36 220 602.36s-13.333 8-22.667 17.333C188 629.026 180 642.36 180 642.36s-8-13.333-17.333-22.667C153.334 610.36 140 602.36 140 602.36s13.333-8 22.667-17.333C172 575.694 180 562.36 180 562.36M180 922.36s8 13.333 17.333 22.667C206.666 954.36 220 962.36 220 962.36s-13.333 8-22.667 17.333C188 989.026 180 1002.36 180 1002.36s-8-13.333-17.333-22.667C153.334 970.36 140 962.36 140 962.36s13.333-8 22.667-17.333C172 935.694 180 922.36 180 922.36M330 932.36s3 5 6.5 8.5 8.5 6.5 8.5 6.5-5 3-8.5 6.5-6.5 8.5-6.5 8.5-3-5-6.5-8.5-8.5-6.5-8.5-6.5 5-3 8.5-6.5 6.5-8.5 6.5-8.5M30 602.36s3 5 6.5 8.5 8.5 6.5 8.5 6.5-5 3-8.5 6.5-6.5 8.5-6.5 8.5-3-5-6.5-8.5-8.5-6.5-8.5-6.5 5-3 8.5-6.5 6.5-8.5 6.5-8.5M30 542.36c-5.54 0-10 4.46-10 10v5h5v-5c0-2.77 2.23-5 5-5s5 2.23 5 5v5c0 1.128-.375 3.065-1 3.9-4.463 9.104-9.278 17.13-14 26.1v5h20v-10h-5v5h-9.5c4.489-7.915 8.218-15.572 12.5-23.6 1.25-1.669 2-4.145 2-6.4v-5c0-5.54-4.46-10-10-10M330 1022.4c5.54 0 10-4.46 10-10v-5h-5v5c0 2.77-2.23 5-5 5s-5-2.23-5-5v-5c0-1.128.375-3.065 1-3.9 4.463-9.104 9.278-17.13 14-26.1v-5h-20v10h5v-5h9.5c-4.489 7.915-8.218 15.572-12.5 23.6-1.25 1.669-2 4.145-2 6.4v5c0 5.54 4.46 10 10 10"/></g></g></svg>